<mxfile host="app.diagrams.net" modified="2023-04-04T23:56:18.943Z" agent="Mozilla/5.0 (Windows NT 10.0; Win64; x64) AppleWebKit/537.36 (KHTML, like Gecko) Chrome/111.0.0.0 Safari/537.36" etag="peZjJJ9WAxstvc84ztId" version="21.1.4" type="google">
  <diagram name="Page-1" id="6vQ29ggMuNYQ1j_CGUGW">
    <mxGraphModel grid="1" page="1" gridSize="10" guides="1" tooltips="1" connect="1" arrows="1" fold="1" pageScale="1" pageWidth="850" pageHeight="1100" math="0" shadow="0">
      <root>
        <mxCell id="0" />
        <mxCell id="1" parent="0" />
        <mxCell id="3T-uVdfU-VrU92vL0YpA-278" value="" style="edgeStyle=orthogonalEdgeStyle;rounded=0;orthogonalLoop=1;jettySize=auto;entryX=0.5;entryY=0;entryDx=0;entryDy=0;fontSize=18;" edge="1" parent="1" source="3T-uVdfU-VrU92vL0YpA-2" target="3T-uVdfU-VrU92vL0YpA-275">
          <mxGeometry relative="1" as="geometry">
            <Array as="points">
              <mxPoint x="215" y="1150" />
              <mxPoint x="635" y="1150" />
            </Array>
          </mxGeometry>
        </mxCell>
        <mxCell id="3T-uVdfU-VrU92vL0YpA-2" value="(" style="ellipse;whiteSpace=wrap;aspect=fixed;fontSize=18;fontStyle=1" vertex="1" parent="1">
          <mxGeometry x="190" y="230" width="50" height="50" as="geometry" />
        </mxCell>
        <mxCell id="3T-uVdfU-VrU92vL0YpA-4" value="(" style="ellipse;whiteSpace=wrap;aspect=fixed;fontSize=18;fontStyle=1" vertex="1" parent="1">
          <mxGeometry x="30" y="230" width="50" height="50" as="geometry" />
        </mxCell>
        <mxCell id="3T-uVdfU-VrU92vL0YpA-6" value="1" style="ellipse;whiteSpace=wrap;aspect=fixed;fontSize=18;fontStyle=1" vertex="1" parent="1">
          <mxGeometry x="350" y="230" width="50" height="50" as="geometry" />
        </mxCell>
        <mxCell id="3T-uVdfU-VrU92vL0YpA-8" value="g" style="ellipse;whiteSpace=wrap;aspect=fixed;fontSize=18;fontStyle=1" vertex="1" parent="1">
          <mxGeometry x="110" y="230" width="50" height="50" as="geometry" />
        </mxCell>
        <mxCell id="3T-uVdfU-VrU92vL0YpA-187" value="" style="edgeStyle=orthogonalEdgeStyle;rounded=0;orthogonalLoop=1;jettySize=auto;entryX=0.5;entryY=0;entryDx=0;entryDy=0;fontSize=18;" edge="1" parent="1" source="3T-uVdfU-VrU92vL0YpA-10" target="3T-uVdfU-VrU92vL0YpA-185">
          <mxGeometry relative="1" as="geometry" />
        </mxCell>
        <mxCell id="3T-uVdfU-VrU92vL0YpA-10" value="-" style="ellipse;whiteSpace=wrap;aspect=fixed;fontSize=18;fontStyle=1" vertex="1" parent="1">
          <mxGeometry x="270" y="230" width="50" height="50" as="geometry" />
        </mxCell>
        <mxCell id="3T-uVdfU-VrU92vL0YpA-11" value="3" style="ellipse;whiteSpace=wrap;aspect=fixed;fontSize=18;fontStyle=1" vertex="1" parent="1">
          <mxGeometry x="590" y="230" width="50" height="50" as="geometry" />
        </mxCell>
        <mxCell id="3T-uVdfU-VrU92vL0YpA-171" value="" style="edgeStyle=orthogonalEdgeStyle;rounded=0;orthogonalLoop=1;jettySize=auto;entryX=0.5;entryY=0;entryDx=0;entryDy=0;fontSize=18;" edge="1" parent="1" source="3T-uVdfU-VrU92vL0YpA-12" target="3T-uVdfU-VrU92vL0YpA-170">
          <mxGeometry relative="1" as="geometry" />
        </mxCell>
        <mxCell id="3T-uVdfU-VrU92vL0YpA-12" value="." style="ellipse;whiteSpace=wrap;aspect=fixed;fontSize=18;fontStyle=1" vertex="1" parent="1">
          <mxGeometry x="430" y="230" width="50" height="50" as="geometry" />
        </mxCell>
        <mxCell id="3T-uVdfU-VrU92vL0YpA-13" value="4" style="ellipse;whiteSpace=wrap;aspect=fixed;fontSize=18;fontStyle=1" vertex="1" parent="1">
          <mxGeometry x="750" y="230" width="50" height="50" as="geometry" />
        </mxCell>
        <mxCell id="3T-uVdfU-VrU92vL0YpA-15" value="1" style="ellipse;whiteSpace=wrap;aspect=fixed;fontSize=18;fontStyle=1" vertex="1" parent="1">
          <mxGeometry x="510" y="230" width="50" height="50" as="geometry" />
        </mxCell>
        <mxCell id="3T-uVdfU-VrU92vL0YpA-227" value="" style="edgeStyle=orthogonalEdgeStyle;rounded=0;orthogonalLoop=1;jettySize=auto;entryX=0.5;entryY=0;entryDx=0;entryDy=0;fontSize=18;" edge="1" parent="1" source="3T-uVdfU-VrU92vL0YpA-17" target="3T-uVdfU-VrU92vL0YpA-226">
          <mxGeometry relative="1" as="geometry" />
        </mxCell>
        <mxCell id="3T-uVdfU-VrU92vL0YpA-17" value="," style="ellipse;whiteSpace=wrap;aspect=fixed;fontSize=18;fontStyle=1" vertex="1" parent="1">
          <mxGeometry x="670" y="230" width="50" height="50" as="geometry" />
        </mxCell>
        <mxCell id="3T-uVdfU-VrU92vL0YpA-18" value="7" style="ellipse;whiteSpace=wrap;aspect=fixed;fontSize=18;fontStyle=1" vertex="1" parent="1">
          <mxGeometry x="990" y="230" width="50" height="50" as="geometry" />
        </mxCell>
        <mxCell id="3T-uVdfU-VrU92vL0YpA-20" value="3" style="ellipse;whiteSpace=wrap;aspect=fixed;fontSize=18;fontStyle=1" vertex="1" parent="1">
          <mxGeometry x="830" y="230" width="50" height="50" as="geometry" />
        </mxCell>
        <mxCell id="3T-uVdfU-VrU92vL0YpA-21" value="," style="ellipse;whiteSpace=wrap;aspect=fixed;fontSize=18;fontStyle=1;fillColor=#f8cecc;strokeColor=#b85450;" vertex="1" parent="1">
          <mxGeometry x="1150" y="230" width="50" height="50" as="geometry" />
        </mxCell>
        <mxCell id="3T-uVdfU-VrU92vL0YpA-265" value="" style="edgeStyle=orthogonalEdgeStyle;rounded=0;orthogonalLoop=1;jettySize=auto;fontSize=18;" edge="1" parent="1" source="3T-uVdfU-VrU92vL0YpA-22" target="3T-uVdfU-VrU92vL0YpA-264">
          <mxGeometry relative="1" as="geometry" />
        </mxCell>
        <mxCell id="3T-uVdfU-VrU92vL0YpA-22" value="," style="ellipse;whiteSpace=wrap;aspect=fixed;fontSize=18;fontStyle=1" vertex="1" parent="1">
          <mxGeometry x="910" y="230" width="50" height="50" as="geometry" />
        </mxCell>
        <mxCell id="3T-uVdfU-VrU92vL0YpA-24" value=")" style="ellipse;whiteSpace=wrap;aspect=fixed;fontSize=18;fontStyle=1;fillColor=#f8cecc;strokeColor=#b85450;" vertex="1" parent="1">
          <mxGeometry x="1070" y="230" width="50" height="50" as="geometry" />
        </mxCell>
        <mxCell id="3T-uVdfU-VrU92vL0YpA-25" value="t" style="ellipse;whiteSpace=wrap;aspect=fixed;fontSize=18;fontStyle=1" vertex="1" parent="1">
          <mxGeometry x="400" y="1392.5" width="50" height="50" as="geometry" />
        </mxCell>
        <mxCell id="3T-uVdfU-VrU92vL0YpA-26" value="n" style="ellipse;whiteSpace=wrap;aspect=fixed;fontSize=18;fontStyle=1" vertex="1" parent="1">
          <mxGeometry x="560" y="1392.5" width="50" height="50" as="geometry" />
        </mxCell>
        <mxCell id="3T-uVdfU-VrU92vL0YpA-403" value="" style="edgeStyle=orthogonalEdgeStyle;rounded=0;orthogonalLoop=1;jettySize=auto;entryX=0.5;entryY=0;entryDx=0;entryDy=0;fontSize=18;" edge="1" parent="1" source="3T-uVdfU-VrU92vL0YpA-27" target="3T-uVdfU-VrU92vL0YpA-402">
          <mxGeometry relative="1" as="geometry" />
        </mxCell>
        <mxCell id="3T-uVdfU-VrU92vL0YpA-27" value="+" style="ellipse;whiteSpace=wrap;aspect=fixed;fontSize=18;fontStyle=1" vertex="1" parent="1">
          <mxGeometry x="320" y="1392.5" width="50" height="50" as="geometry" />
        </mxCell>
        <mxCell id="3T-uVdfU-VrU92vL0YpA-29" value="a" style="ellipse;whiteSpace=wrap;aspect=fixed;fontSize=18;fontStyle=1" vertex="1" parent="1">
          <mxGeometry x="480" y="1392.5" width="50" height="50" as="geometry" />
        </mxCell>
        <mxCell id="3T-uVdfU-VrU92vL0YpA-148" value="" style="edgeStyle=orthogonalEdgeStyle;rounded=0;orthogonalLoop=1;jettySize=auto;fontFamily=Verdana;fontSize=18;" edge="1" parent="1" target="3T-uVdfU-VrU92vL0YpA-149">
          <mxGeometry relative="1" as="geometry">
            <mxPoint x="375" y="280" as="sourcePoint" />
          </mxGeometry>
        </mxCell>
        <mxCell id="3T-uVdfU-VrU92vL0YpA-149" value="D" style="ellipse;whiteSpace=wrap;aspect=fixed;fontSize=18;fontStyle=1" vertex="1" parent="1">
          <mxGeometry x="350" y="320" width="50" height="50" as="geometry" />
        </mxCell>
        <mxCell id="3T-uVdfU-VrU92vL0YpA-150" value="30" style="text;align=center;verticalAlign=middle;resizable=0;points=[];autosize=1;strokeColor=none;fillColor=none;fontSize=18;fontFamily=Verdana;" vertex="1" parent="1">
          <mxGeometry x="365" y="285" width="50" height="40" as="geometry" />
        </mxCell>
        <mxCell id="3T-uVdfU-VrU92vL0YpA-151" value="" style="edgeStyle=orthogonalEdgeStyle;rounded=0;orthogonalLoop=1;jettySize=auto;entryX=0.5;entryY=0;entryDx=0;entryDy=0;fontFamily=Verdana;fontSize=18;" edge="1" parent="1" target="3T-uVdfU-VrU92vL0YpA-152">
          <mxGeometry relative="1" as="geometry">
            <mxPoint x="375" y="370" as="sourcePoint" />
          </mxGeometry>
        </mxCell>
        <mxCell id="3T-uVdfU-VrU92vL0YpA-172" value="" style="edgeStyle=orthogonalEdgeStyle;rounded=0;orthogonalLoop=1;jettySize=auto;entryX=0.5;entryY=0;entryDx=0;entryDy=0;fontSize=18;" edge="1" parent="1" source="3T-uVdfU-VrU92vL0YpA-152" target="3T-uVdfU-VrU92vL0YpA-170">
          <mxGeometry relative="1" as="geometry">
            <Array as="points">
              <mxPoint x="375" y="510" />
              <mxPoint x="455" y="510" />
            </Array>
          </mxGeometry>
        </mxCell>
        <mxCell id="3T-uVdfU-VrU92vL0YpA-152" value="I" style="ellipse;whiteSpace=wrap;aspect=fixed;fontSize=18;fontStyle=1" vertex="1" parent="1">
          <mxGeometry x="350" y="395" width="50" height="50" as="geometry" />
        </mxCell>
        <mxCell id="3T-uVdfU-VrU92vL0YpA-153" value="23" style="text;align=center;verticalAlign=middle;resizable=0;points=[];autosize=1;strokeColor=none;fillColor=none;fontSize=18;fontFamily=Verdana;" vertex="1" parent="1">
          <mxGeometry x="365" y="360" width="50" height="40" as="geometry" />
        </mxCell>
        <mxCell id="3T-uVdfU-VrU92vL0YpA-154" value="" style="edgeStyle=orthogonalEdgeStyle;rounded=0;orthogonalLoop=1;jettySize=auto;fontFamily=Verdana;fontSize=18;" edge="1" parent="1" target="3T-uVdfU-VrU92vL0YpA-155">
          <mxGeometry relative="1" as="geometry">
            <mxPoint x="535" y="280" as="sourcePoint" />
          </mxGeometry>
        </mxCell>
        <mxCell id="3T-uVdfU-VrU92vL0YpA-155" value="D" style="ellipse;whiteSpace=wrap;aspect=fixed;fontSize=18;fontStyle=1" vertex="1" parent="1">
          <mxGeometry x="510" y="320" width="50" height="50" as="geometry" />
        </mxCell>
        <mxCell id="3T-uVdfU-VrU92vL0YpA-156" value="30" style="text;align=center;verticalAlign=middle;resizable=0;points=[];autosize=1;strokeColor=none;fillColor=none;fontSize=18;fontFamily=Verdana;" vertex="1" parent="1">
          <mxGeometry x="525" y="285" width="50" height="40" as="geometry" />
        </mxCell>
        <mxCell id="3T-uVdfU-VrU92vL0YpA-157" value="" style="edgeStyle=orthogonalEdgeStyle;rounded=0;orthogonalLoop=1;jettySize=auto;entryX=0.5;entryY=0;entryDx=0;entryDy=0;fontFamily=Verdana;fontSize=18;" edge="1" parent="1" target="3T-uVdfU-VrU92vL0YpA-158">
          <mxGeometry relative="1" as="geometry">
            <mxPoint x="535" y="370" as="sourcePoint" />
          </mxGeometry>
        </mxCell>
        <mxCell id="3T-uVdfU-VrU92vL0YpA-158" value="I" style="ellipse;whiteSpace=wrap;aspect=fixed;fontSize=18;fontStyle=1" vertex="1" parent="1">
          <mxGeometry x="510" y="395" width="50" height="50" as="geometry" />
        </mxCell>
        <mxCell id="3T-uVdfU-VrU92vL0YpA-159" value="23" style="text;align=center;verticalAlign=middle;resizable=0;points=[];autosize=1;strokeColor=none;fillColor=none;fontSize=18;fontFamily=Verdana;" vertex="1" parent="1">
          <mxGeometry x="525" y="360" width="50" height="40" as="geometry" />
        </mxCell>
        <mxCell id="3T-uVdfU-VrU92vL0YpA-160" value="" style="edgeStyle=orthogonalEdgeStyle;rounded=0;orthogonalLoop=1;jettySize=auto;fontFamily=Verdana;fontSize=18;" edge="1" parent="1" target="3T-uVdfU-VrU92vL0YpA-161">
          <mxGeometry relative="1" as="geometry">
            <mxPoint x="615" y="280" as="sourcePoint" />
          </mxGeometry>
        </mxCell>
        <mxCell id="3T-uVdfU-VrU92vL0YpA-161" value="D" style="ellipse;whiteSpace=wrap;aspect=fixed;fontSize=18;fontStyle=1" vertex="1" parent="1">
          <mxGeometry x="590" y="320" width="50" height="50" as="geometry" />
        </mxCell>
        <mxCell id="3T-uVdfU-VrU92vL0YpA-162" value="30" style="text;align=center;verticalAlign=middle;resizable=0;points=[];autosize=1;strokeColor=none;fillColor=none;fontSize=18;fontFamily=Verdana;" vertex="1" parent="1">
          <mxGeometry x="605" y="285" width="50" height="40" as="geometry" />
        </mxCell>
        <mxCell id="3T-uVdfU-VrU92vL0YpA-163" value="" style="edgeStyle=orthogonalEdgeStyle;rounded=0;orthogonalLoop=1;jettySize=auto;entryX=0.5;entryY=0;entryDx=0;entryDy=0;fontFamily=Verdana;fontSize=18;" edge="1" parent="1" target="3T-uVdfU-VrU92vL0YpA-164">
          <mxGeometry relative="1" as="geometry">
            <mxPoint x="615" y="370" as="sourcePoint" />
          </mxGeometry>
        </mxCell>
        <mxCell id="3T-uVdfU-VrU92vL0YpA-173" value="" style="edgeStyle=orthogonalEdgeStyle;rounded=0;orthogonalLoop=1;jettySize=auto;fontSize=18;" edge="1" parent="1" source="3T-uVdfU-VrU92vL0YpA-164" target="3T-uVdfU-VrU92vL0YpA-170">
          <mxGeometry relative="1" as="geometry">
            <Array as="points">
              <mxPoint x="455" y="510" />
            </Array>
          </mxGeometry>
        </mxCell>
        <mxCell id="3T-uVdfU-VrU92vL0YpA-164" value="I" style="ellipse;whiteSpace=wrap;aspect=fixed;fontSize=18;fontStyle=1" vertex="1" parent="1">
          <mxGeometry x="590" y="475" width="50" height="50" as="geometry" />
        </mxCell>
        <mxCell id="3T-uVdfU-VrU92vL0YpA-165" value="24" style="text;align=center;verticalAlign=middle;resizable=0;points=[];autosize=1;strokeColor=none;fillColor=none;fontSize=18;fontFamily=Verdana;" vertex="1" parent="1">
          <mxGeometry x="560" y="430" width="50" height="40" as="geometry" />
        </mxCell>
        <mxCell id="3T-uVdfU-VrU92vL0YpA-170" value="R" style="ellipse;whiteSpace=wrap;aspect=fixed;fontSize=18;fontStyle=1" vertex="1" parent="1">
          <mxGeometry x="430" y="527.5" width="50" height="50" as="geometry" />
        </mxCell>
        <mxCell id="3T-uVdfU-VrU92vL0YpA-174" value="22" style="text;align=center;verticalAlign=middle;resizable=0;points=[];autosize=1;strokeColor=none;fillColor=none;fontSize=18;fontFamily=Verdana;" vertex="1" parent="1">
          <mxGeometry x="450" y="480" width="50" height="40" as="geometry" />
        </mxCell>
        <mxCell id="3T-uVdfU-VrU92vL0YpA-175" value="" style="edgeStyle=orthogonalEdgeStyle;rounded=0;orthogonalLoop=1;jettySize=auto;entryX=0.5;entryY=0;entryDx=0;entryDy=0;fontFamily=Verdana;fontSize=18;exitX=0.5;exitY=1;exitDx=0;exitDy=0;" edge="1" parent="1" source="3T-uVdfU-VrU92vL0YpA-170" target="3T-uVdfU-VrU92vL0YpA-176">
          <mxGeometry relative="1" as="geometry">
            <mxPoint x="455" y="580" as="sourcePoint" />
          </mxGeometry>
        </mxCell>
        <mxCell id="3T-uVdfU-VrU92vL0YpA-176" value="H" style="ellipse;whiteSpace=wrap;aspect=fixed;fontSize=18;fontStyle=1" vertex="1" parent="1">
          <mxGeometry x="430" y="615" width="50" height="50" as="geometry" />
        </mxCell>
        <mxCell id="3T-uVdfU-VrU92vL0YpA-177" value="13" style="text;align=center;verticalAlign=middle;resizable=0;points=[];autosize=1;strokeColor=none;fillColor=none;fontSize=18;fontFamily=Verdana;" vertex="1" parent="1">
          <mxGeometry x="445" y="575" width="50" height="40" as="geometry" />
        </mxCell>
        <mxCell id="3T-uVdfU-VrU92vL0YpA-178" value="U" style="ellipse;whiteSpace=wrap;aspect=fixed;fontSize=18;fontStyle=1" vertex="1" parent="1">
          <mxGeometry x="430" y="685" width="50" height="50" as="geometry" />
        </mxCell>
        <mxCell id="3T-uVdfU-VrU92vL0YpA-179" value="" style="edgeStyle=orthogonalEdgeStyle;rounded=0;orthogonalLoop=1;jettySize=auto;entryX=0.5;entryY=0;entryDx=0;entryDy=0;fontFamily=Verdana;fontSize=18;exitX=0.5;exitY=1;exitDx=0;exitDy=0;" edge="1" parent="1" source="3T-uVdfU-VrU92vL0YpA-176" target="3T-uVdfU-VrU92vL0YpA-178">
          <mxGeometry relative="1" as="geometry">
            <mxPoint x="455" y="665" as="sourcePoint" />
            <mxPoint x="455" y="695" as="targetPoint" />
          </mxGeometry>
        </mxCell>
        <mxCell id="3T-uVdfU-VrU92vL0YpA-180" value="9" style="text;align=center;verticalAlign=middle;resizable=0;points=[];autosize=1;strokeColor=none;fillColor=none;fontSize=18;fontFamily=Verdana;" vertex="1" parent="1">
          <mxGeometry x="452.5" y="650" width="30" height="40" as="geometry" />
        </mxCell>
        <mxCell id="3T-uVdfU-VrU92vL0YpA-181" value="" style="edgeStyle=orthogonalEdgeStyle;rounded=0;orthogonalLoop=1;jettySize=auto;entryX=0.5;entryY=0;entryDx=0;entryDy=0;fontFamily=Verdana;fontSize=18;" edge="1" parent="1" target="3T-uVdfU-VrU92vL0YpA-182">
          <mxGeometry relative="1" as="geometry">
            <mxPoint x="455" y="730" as="sourcePoint" />
          </mxGeometry>
        </mxCell>
        <mxCell id="3T-uVdfU-VrU92vL0YpA-191" value="" style="edgeStyle=orthogonalEdgeStyle;rounded=0;orthogonalLoop=1;jettySize=auto;entryX=0.5;entryY=0;entryDx=0;entryDy=0;fontSize=18;" edge="1" parent="1" source="3T-uVdfU-VrU92vL0YpA-182" target="3T-uVdfU-VrU92vL0YpA-188">
          <mxGeometry relative="1" as="geometry">
            <Array as="points">
              <mxPoint x="295" y="790" />
            </Array>
          </mxGeometry>
        </mxCell>
        <mxCell id="3T-uVdfU-VrU92vL0YpA-182" value="T" style="ellipse;whiteSpace=wrap;aspect=fixed;fontSize=18;fontStyle=1" vertex="1" parent="1">
          <mxGeometry x="430" y="765" width="50" height="50" as="geometry" />
        </mxCell>
        <mxCell id="3T-uVdfU-VrU92vL0YpA-183" value="7" style="text;align=center;verticalAlign=middle;resizable=0;points=[];autosize=1;strokeColor=none;fillColor=none;fontSize=18;fontFamily=Verdana;" vertex="1" parent="1">
          <mxGeometry x="455" y="725" width="30" height="40" as="geometry" />
        </mxCell>
        <mxCell id="3T-uVdfU-VrU92vL0YpA-184" value="" style="endArrow=classic;rounded=0;entryX=0.5;entryY=0;entryDx=0;entryDy=0;exitX=0.5;exitY=1;exitDx=0;exitDy=0;fontSize=18;" edge="1" parent="1" source="3T-uVdfU-VrU92vL0YpA-158" target="3T-uVdfU-VrU92vL0YpA-164">
          <mxGeometry width="50" height="50" relative="1" as="geometry">
            <mxPoint x="520" y="550" as="sourcePoint" />
            <mxPoint x="570" y="500" as="targetPoint" />
          </mxGeometry>
        </mxCell>
        <mxCell id="3T-uVdfU-VrU92vL0YpA-192" value="" style="edgeStyle=orthogonalEdgeStyle;rounded=0;orthogonalLoop=1;jettySize=auto;fontSize=18;" edge="1" parent="1" source="3T-uVdfU-VrU92vL0YpA-185">
          <mxGeometry relative="1" as="geometry">
            <mxPoint x="295" y="800" as="targetPoint" />
          </mxGeometry>
        </mxCell>
        <mxCell id="3T-uVdfU-VrU92vL0YpA-185" value="Z" style="ellipse;whiteSpace=wrap;aspect=fixed;fontSize=18;fontStyle=1" vertex="1" parent="1">
          <mxGeometry x="270" y="500" width="50" height="50" as="geometry" />
        </mxCell>
        <mxCell id="3T-uVdfU-VrU92vL0YpA-190" value="" style="edgeStyle=orthogonalEdgeStyle;rounded=0;orthogonalLoop=1;jettySize=auto;entryX=0.5;entryY=0;entryDx=0;entryDy=0;fontSize=18;" edge="1" parent="1" source="3T-uVdfU-VrU92vL0YpA-188" target="3T-uVdfU-VrU92vL0YpA-189">
          <mxGeometry relative="1" as="geometry" />
        </mxCell>
        <mxCell id="3T-uVdfU-VrU92vL0YpA-188" value="A" style="ellipse;whiteSpace=wrap;aspect=fixed;fontSize=18;fontStyle=1" vertex="1" parent="1">
          <mxGeometry x="270" y="802.5" width="50" height="50" as="geometry" />
        </mxCell>
        <mxCell id="3T-uVdfU-VrU92vL0YpA-228" value="" style="edgeStyle=orthogonalEdgeStyle;rounded=0;orthogonalLoop=1;jettySize=auto;entryX=0.5;entryY=0;entryDx=0;entryDy=0;fontSize=18;" edge="1" parent="1" source="3T-uVdfU-VrU92vL0YpA-189" target="3T-uVdfU-VrU92vL0YpA-226">
          <mxGeometry relative="1" as="geometry">
            <Array as="points">
              <mxPoint x="695" y="920" />
            </Array>
          </mxGeometry>
        </mxCell>
        <mxCell id="3T-uVdfU-VrU92vL0YpA-189" value="B" style="ellipse;whiteSpace=wrap;aspect=fixed;fontSize=18;fontStyle=1" vertex="1" parent="1">
          <mxGeometry x="270" y="890" width="50" height="50" as="geometry" />
        </mxCell>
        <mxCell id="3T-uVdfU-VrU92vL0YpA-193" value="5" style="text;align=center;verticalAlign=middle;resizable=0;points=[];autosize=1;strokeColor=none;fillColor=none;fontSize=18;fontFamily=Verdana;" vertex="1" parent="1">
          <mxGeometry x="290" y="752.5" width="30" height="40" as="geometry" />
        </mxCell>
        <mxCell id="3T-uVdfU-VrU92vL0YpA-194" value="2" style="text;align=center;verticalAlign=middle;resizable=0;points=[];autosize=1;strokeColor=none;fillColor=none;fontSize=18;fontFamily=Verdana;" vertex="1" parent="1">
          <mxGeometry x="290" y="850" width="30" height="40" as="geometry" />
        </mxCell>
        <mxCell id="3T-uVdfU-VrU92vL0YpA-195" value="25" style="text;align=center;verticalAlign=middle;resizable=0;points=[];autosize=1;strokeColor=none;fillColor=none;fontSize=18;fontFamily=Verdana;" vertex="1" parent="1">
          <mxGeometry x="290" y="460" width="50" height="40" as="geometry" />
        </mxCell>
        <mxCell id="3T-uVdfU-VrU92vL0YpA-196" value="" style="edgeStyle=orthogonalEdgeStyle;rounded=0;orthogonalLoop=1;jettySize=auto;fontFamily=Verdana;fontSize=18;exitX=0.5;exitY=1;exitDx=0;exitDy=0;" edge="1" parent="1" source="3T-uVdfU-VrU92vL0YpA-20" target="3T-uVdfU-VrU92vL0YpA-197">
          <mxGeometry relative="1" as="geometry">
            <mxPoint x="840" y="412.5" as="sourcePoint" />
          </mxGeometry>
        </mxCell>
        <mxCell id="3T-uVdfU-VrU92vL0YpA-197" value="D" style="ellipse;whiteSpace=wrap;aspect=fixed;fontSize=18;fontStyle=1" vertex="1" parent="1">
          <mxGeometry x="830" y="320" width="50" height="50" as="geometry" />
        </mxCell>
        <mxCell id="3T-uVdfU-VrU92vL0YpA-198" value="30" style="text;align=center;verticalAlign=middle;resizable=0;points=[];autosize=1;strokeColor=none;fillColor=none;fontSize=18;fontFamily=Verdana;" vertex="1" parent="1">
          <mxGeometry x="850" y="270" width="50" height="40" as="geometry" />
        </mxCell>
        <mxCell id="3T-uVdfU-VrU92vL0YpA-199" value="" style="edgeStyle=orthogonalEdgeStyle;rounded=0;orthogonalLoop=1;jettySize=auto;entryX=0.5;entryY=0;entryDx=0;entryDy=0;fontFamily=Verdana;fontSize=18;exitX=0.424;exitY=1.031;exitDx=0;exitDy=0;exitPerimeter=0;" edge="1" parent="1" source="3T-uVdfU-VrU92vL0YpA-197" target="3T-uVdfU-VrU92vL0YpA-202">
          <mxGeometry relative="1" as="geometry">
            <mxPoint x="860" y="435" as="sourcePoint" />
          </mxGeometry>
        </mxCell>
        <mxCell id="3T-uVdfU-VrU92vL0YpA-200" value="" style="edgeStyle=orthogonalEdgeStyle;rounded=0;orthogonalLoop=1;jettySize=auto;entryX=0.5;entryY=0;entryDx=0;entryDy=0;fontFamily=Verdana;fontSize=18;" edge="1" parent="1" target="3T-uVdfU-VrU92vL0YpA-203">
          <mxGeometry relative="1" as="geometry">
            <mxPoint x="851.25" y="590" as="sourcePoint" />
          </mxGeometry>
        </mxCell>
        <mxCell id="3T-uVdfU-VrU92vL0YpA-201" value="" style="edgeStyle=orthogonalEdgeStyle;rounded=0;orthogonalLoop=1;jettySize=auto;entryX=0.5;entryY=0;entryDx=0;entryDy=0;fontSize=18;" edge="1" parent="1" source="3T-uVdfU-VrU92vL0YpA-202" target="3T-uVdfU-VrU92vL0YpA-212">
          <mxGeometry relative="1" as="geometry" />
        </mxCell>
        <mxCell id="3T-uVdfU-VrU92vL0YpA-202" value="I" style="ellipse;whiteSpace=wrap;aspect=fixed;fontSize=18;fontStyle=1" vertex="1" parent="1">
          <mxGeometry x="826.25" y="470" width="50" height="50" as="geometry" />
        </mxCell>
        <mxCell id="3T-uVdfU-VrU92vL0YpA-203" value="H" style="ellipse;whiteSpace=wrap;aspect=fixed;fontSize=18;fontStyle=1" vertex="1" parent="1">
          <mxGeometry x="826.25" y="625" width="50" height="50" as="geometry" />
        </mxCell>
        <mxCell id="3T-uVdfU-VrU92vL0YpA-204" value="13" style="text;align=center;verticalAlign=middle;resizable=0;points=[];autosize=1;strokeColor=none;fillColor=none;fontSize=18;fontFamily=Verdana;" vertex="1" parent="1">
          <mxGeometry x="850" y="575" width="50" height="40" as="geometry" />
        </mxCell>
        <mxCell id="3T-uVdfU-VrU92vL0YpA-205" value="24" style="text;align=center;verticalAlign=middle;resizable=0;points=[];autosize=1;strokeColor=none;fillColor=none;fontSize=18;fontFamily=Verdana;" vertex="1" parent="1">
          <mxGeometry x="815" y="420" width="50" height="40" as="geometry" />
        </mxCell>
        <mxCell id="3T-uVdfU-VrU92vL0YpA-221" value="" style="edgeStyle=orthogonalEdgeStyle;rounded=0;orthogonalLoop=1;jettySize=auto;fontSize=18;" edge="1" parent="1" source="3T-uVdfU-VrU92vL0YpA-206" target="3T-uVdfU-VrU92vL0YpA-210">
          <mxGeometry relative="1" as="geometry" />
        </mxCell>
        <mxCell id="3T-uVdfU-VrU92vL0YpA-206" value="U" style="ellipse;whiteSpace=wrap;aspect=fixed;fontSize=18;fontStyle=1" vertex="1" parent="1">
          <mxGeometry x="826.25" y="695" width="50" height="50" as="geometry" />
        </mxCell>
        <mxCell id="3T-uVdfU-VrU92vL0YpA-207" value="" style="edgeStyle=orthogonalEdgeStyle;rounded=0;orthogonalLoop=1;jettySize=auto;entryX=0.5;entryY=0;entryDx=0;entryDy=0;fontFamily=Verdana;fontSize=18;exitX=0.5;exitY=1;exitDx=0;exitDy=0;" edge="1" parent="1" source="3T-uVdfU-VrU92vL0YpA-203" target="3T-uVdfU-VrU92vL0YpA-206">
          <mxGeometry relative="1" as="geometry">
            <mxPoint x="851.25" y="675" as="sourcePoint" />
            <mxPoint x="851.25" y="705" as="targetPoint" />
          </mxGeometry>
        </mxCell>
        <mxCell id="3T-uVdfU-VrU92vL0YpA-208" value="9" style="text;align=center;verticalAlign=middle;resizable=0;points=[];autosize=1;strokeColor=none;fillColor=none;fontSize=18;fontFamily=Verdana;" vertex="1" parent="1">
          <mxGeometry x="848.75" y="660" width="30" height="40" as="geometry" />
        </mxCell>
        <mxCell id="3T-uVdfU-VrU92vL0YpA-209" value="" style="edgeStyle=orthogonalEdgeStyle;rounded=0;orthogonalLoop=1;jettySize=auto;entryX=0.5;entryY=0;entryDx=0;entryDy=0;fontFamily=Verdana;fontSize=18;" edge="1" parent="1" target="3T-uVdfU-VrU92vL0YpA-210">
          <mxGeometry relative="1" as="geometry">
            <mxPoint x="851" y="750" as="sourcePoint" />
          </mxGeometry>
        </mxCell>
        <mxCell id="3T-uVdfU-VrU92vL0YpA-210" value="T" style="ellipse;whiteSpace=wrap;aspect=fixed;fontSize=18;fontStyle=1" vertex="1" parent="1">
          <mxGeometry x="826.25" y="775" width="50" height="50" as="geometry" />
        </mxCell>
        <mxCell id="3T-uVdfU-VrU92vL0YpA-211" value="7" style="text;align=center;verticalAlign=middle;resizable=0;points=[];autosize=1;strokeColor=none;fillColor=none;fontSize=18;fontFamily=Verdana;" vertex="1" parent="1">
          <mxGeometry x="853.75" y="735" width="30" height="40" as="geometry" />
        </mxCell>
        <mxCell id="3T-uVdfU-VrU92vL0YpA-212" value="R" style="ellipse;whiteSpace=wrap;aspect=fixed;fontSize=18;fontStyle=1" vertex="1" parent="1">
          <mxGeometry x="826.25" y="545" width="50" height="50" as="geometry" />
        </mxCell>
        <mxCell id="3T-uVdfU-VrU92vL0YpA-213" value="19" style="text;align=center;verticalAlign=middle;resizable=0;points=[];autosize=1;strokeColor=none;fillColor=none;fontSize=18;" vertex="1" parent="1">
          <mxGeometry x="843.75" y="510" width="40" height="40" as="geometry" />
        </mxCell>
        <mxCell id="3T-uVdfU-VrU92vL0YpA-214" value="" style="edgeStyle=orthogonalEdgeStyle;rounded=0;orthogonalLoop=1;jettySize=auto;fontFamily=Verdana;fontSize=18;exitX=0.5;exitY=1;exitDx=0;exitDy=0;" edge="1" parent="1" target="3T-uVdfU-VrU92vL0YpA-215">
          <mxGeometry relative="1" as="geometry">
            <mxPoint x="775" y="277.5" as="sourcePoint" />
          </mxGeometry>
        </mxCell>
        <mxCell id="3T-uVdfU-VrU92vL0YpA-215" value="D" style="ellipse;whiteSpace=wrap;aspect=fixed;fontSize=18;fontStyle=1" vertex="1" parent="1">
          <mxGeometry x="750" y="317.5" width="50" height="50" as="geometry" />
        </mxCell>
        <mxCell id="3T-uVdfU-VrU92vL0YpA-216" value="30" style="text;align=center;verticalAlign=middle;resizable=0;points=[];autosize=1;strokeColor=none;fillColor=none;fontSize=18;fontFamily=Verdana;" vertex="1" parent="1">
          <mxGeometry x="770" y="267.5" width="50" height="40" as="geometry" />
        </mxCell>
        <mxCell id="3T-uVdfU-VrU92vL0YpA-217" value="" style="edgeStyle=orthogonalEdgeStyle;rounded=0;orthogonalLoop=1;jettySize=auto;entryX=0.5;entryY=0;entryDx=0;entryDy=0;fontFamily=Verdana;fontSize=18;" edge="1" parent="1" target="3T-uVdfU-VrU92vL0YpA-218">
          <mxGeometry relative="1" as="geometry">
            <mxPoint x="775" y="370" as="sourcePoint" />
          </mxGeometry>
        </mxCell>
        <mxCell id="3T-uVdfU-VrU92vL0YpA-220" value="" style="edgeStyle=orthogonalEdgeStyle;rounded=0;orthogonalLoop=1;jettySize=auto;entryX=0.5;entryY=0;entryDx=0;entryDy=0;fontSize=18;" edge="1" parent="1" source="3T-uVdfU-VrU92vL0YpA-218" target="3T-uVdfU-VrU92vL0YpA-202">
          <mxGeometry relative="1" as="geometry">
            <Array as="points">
              <mxPoint x="775" y="450" />
              <mxPoint x="851" y="450" />
            </Array>
          </mxGeometry>
        </mxCell>
        <mxCell id="3T-uVdfU-VrU92vL0YpA-218" value="I" style="ellipse;whiteSpace=wrap;aspect=fixed;fontSize=18;fontStyle=1" vertex="1" parent="1">
          <mxGeometry x="750" y="395" width="50" height="50" as="geometry" />
        </mxCell>
        <mxCell id="3T-uVdfU-VrU92vL0YpA-219" value="23" style="text;align=center;verticalAlign=middle;resizable=0;points=[];autosize=1;strokeColor=none;fillColor=none;fontSize=18;fontFamily=Verdana;" vertex="1" parent="1">
          <mxGeometry x="765" y="360" width="50" height="40" as="geometry" />
        </mxCell>
        <mxCell id="3T-uVdfU-VrU92vL0YpA-222" value="" style="edgeStyle=orthogonalEdgeStyle;rounded=0;orthogonalLoop=1;jettySize=auto;fontSize=18;" edge="1" parent="1" target="3T-uVdfU-VrU92vL0YpA-224">
          <mxGeometry relative="1" as="geometry">
            <mxPoint x="851" y="825" as="sourcePoint" />
          </mxGeometry>
        </mxCell>
        <mxCell id="3T-uVdfU-VrU92vL0YpA-223" value="" style="edgeStyle=orthogonalEdgeStyle;rounded=0;orthogonalLoop=1;jettySize=auto;entryX=0.5;entryY=0;entryDx=0;entryDy=0;fontFamily=Verdana;fontSize=18;" edge="1" parent="1" target="3T-uVdfU-VrU92vL0YpA-224">
          <mxGeometry relative="1" as="geometry">
            <mxPoint x="851" y="830" as="sourcePoint" />
          </mxGeometry>
        </mxCell>
        <mxCell id="3T-uVdfU-VrU92vL0YpA-229" value="" style="edgeStyle=orthogonalEdgeStyle;rounded=0;orthogonalLoop=1;jettySize=auto;entryX=0.5;entryY=0;entryDx=0;entryDy=0;fontSize=18;" edge="1" parent="1" source="3T-uVdfU-VrU92vL0YpA-224" target="3T-uVdfU-VrU92vL0YpA-226">
          <mxGeometry relative="1" as="geometry">
            <Array as="points">
              <mxPoint x="851" y="920" />
              <mxPoint x="695" y="920" />
            </Array>
          </mxGeometry>
        </mxCell>
        <mxCell id="3T-uVdfU-VrU92vL0YpA-224" value="A" style="ellipse;whiteSpace=wrap;aspect=fixed;fontSize=18;fontStyle=1" vertex="1" parent="1">
          <mxGeometry x="826.25" y="855" width="50" height="50" as="geometry" />
        </mxCell>
        <mxCell id="3T-uVdfU-VrU92vL0YpA-225" value="4" style="text;align=center;verticalAlign=middle;resizable=0;points=[];autosize=1;strokeColor=none;fillColor=none;fontSize=18;fontFamily=Verdana;" vertex="1" parent="1">
          <mxGeometry x="853.75" y="815" width="30" height="40" as="geometry" />
        </mxCell>
        <mxCell id="3T-uVdfU-VrU92vL0YpA-266" value="" style="edgeStyle=orthogonalEdgeStyle;rounded=0;orthogonalLoop=1;jettySize=auto;entryX=0.5;entryY=0;entryDx=0;entryDy=0;fontSize=18;" edge="1" parent="1" source="3T-uVdfU-VrU92vL0YpA-226" target="3T-uVdfU-VrU92vL0YpA-264">
          <mxGeometry relative="1" as="geometry">
            <Array as="points">
              <mxPoint x="935" y="1000" />
            </Array>
          </mxGeometry>
        </mxCell>
        <mxCell id="3T-uVdfU-VrU92vL0YpA-226" value="B" style="ellipse;whiteSpace=wrap;aspect=fixed;fontSize=18;fontStyle=1" vertex="1" parent="1">
          <mxGeometry x="670" y="950" width="50" height="50" as="geometry" />
        </mxCell>
        <mxCell id="3T-uVdfU-VrU92vL0YpA-230" value="3" style="text;align=center;verticalAlign=middle;resizable=0;points=[];autosize=1;strokeColor=none;fillColor=none;fontSize=18;fontFamily=Verdana;" vertex="1" parent="1">
          <mxGeometry x="700" y="890" width="30" height="40" as="geometry" />
        </mxCell>
        <mxCell id="3T-uVdfU-VrU92vL0YpA-231" value="" style="edgeStyle=orthogonalEdgeStyle;rounded=0;orthogonalLoop=1;jettySize=auto;fontFamily=Verdana;fontSize=18;exitX=0.5;exitY=1;exitDx=0;exitDy=0;" edge="1" parent="1" target="3T-uVdfU-VrU92vL0YpA-232">
          <mxGeometry relative="1" as="geometry">
            <mxPoint x="1095" y="282.5" as="sourcePoint" />
          </mxGeometry>
        </mxCell>
        <mxCell id="3T-uVdfU-VrU92vL0YpA-232" value="D" style="ellipse;whiteSpace=wrap;aspect=fixed;fontSize=18;fontStyle=1" vertex="1" parent="1">
          <mxGeometry x="1070" y="322.5" width="50" height="50" as="geometry" />
        </mxCell>
        <mxCell id="3T-uVdfU-VrU92vL0YpA-233" value="ошибка" style="text;align=center;verticalAlign=middle;resizable=0;points=[];autosize=1;strokeColor=none;fillColor=none;fontSize=18;fontFamily=Verdana;" vertex="1" parent="1">
          <mxGeometry x="1055" y="277.5" width="90" height="40" as="geometry" />
        </mxCell>
        <mxCell id="3T-uVdfU-VrU92vL0YpA-234" value="" style="edgeStyle=orthogonalEdgeStyle;rounded=0;orthogonalLoop=1;jettySize=auto;entryX=0.5;entryY=0;entryDx=0;entryDy=0;fontFamily=Verdana;fontSize=18;exitX=0.424;exitY=1.031;exitDx=0;exitDy=0;exitPerimeter=0;" edge="1" parent="1" source="3T-uVdfU-VrU92vL0YpA-232" target="3T-uVdfU-VrU92vL0YpA-237">
          <mxGeometry relative="1" as="geometry">
            <mxPoint x="1100" y="437.5" as="sourcePoint" />
          </mxGeometry>
        </mxCell>
        <mxCell id="3T-uVdfU-VrU92vL0YpA-235" value="" style="edgeStyle=orthogonalEdgeStyle;rounded=0;orthogonalLoop=1;jettySize=auto;entryX=0.5;entryY=0;entryDx=0;entryDy=0;fontFamily=Verdana;fontSize=18;" edge="1" parent="1" target="3T-uVdfU-VrU92vL0YpA-238">
          <mxGeometry relative="1" as="geometry">
            <mxPoint x="1091.25" y="592.5" as="sourcePoint" />
          </mxGeometry>
        </mxCell>
        <mxCell id="3T-uVdfU-VrU92vL0YpA-236" value="" style="edgeStyle=orthogonalEdgeStyle;rounded=0;orthogonalLoop=1;jettySize=auto;entryX=0.5;entryY=0;entryDx=0;entryDy=0;fontSize=18;" edge="1" parent="1" source="3T-uVdfU-VrU92vL0YpA-237" target="3T-uVdfU-VrU92vL0YpA-248">
          <mxGeometry relative="1" as="geometry" />
        </mxCell>
        <mxCell id="3T-uVdfU-VrU92vL0YpA-237" value="I" style="ellipse;whiteSpace=wrap;aspect=fixed;fontSize=18;fontStyle=1" vertex="1" parent="1">
          <mxGeometry x="1066.25" y="472.5" width="50" height="50" as="geometry" />
        </mxCell>
        <mxCell id="3T-uVdfU-VrU92vL0YpA-238" value="H" style="ellipse;whiteSpace=wrap;aspect=fixed;fontSize=18;fontStyle=1" vertex="1" parent="1">
          <mxGeometry x="1066.25" y="627.5" width="50" height="50" as="geometry" />
        </mxCell>
        <mxCell id="3T-uVdfU-VrU92vL0YpA-239" value="13" style="text;align=center;verticalAlign=middle;resizable=0;points=[];autosize=1;strokeColor=none;fillColor=none;fontSize=18;fontFamily=Verdana;" vertex="1" parent="1">
          <mxGeometry x="1090" y="577.5" width="50" height="40" as="geometry" />
        </mxCell>
        <mxCell id="3T-uVdfU-VrU92vL0YpA-240" value="24" style="text;align=center;verticalAlign=middle;resizable=0;points=[];autosize=1;strokeColor=none;fillColor=none;fontSize=18;fontFamily=Verdana;" vertex="1" parent="1">
          <mxGeometry x="1055" y="422.5" width="50" height="40" as="geometry" />
        </mxCell>
        <mxCell id="3T-uVdfU-VrU92vL0YpA-241" value="" style="edgeStyle=orthogonalEdgeStyle;rounded=0;orthogonalLoop=1;jettySize=auto;fontSize=18;" edge="1" parent="1" source="3T-uVdfU-VrU92vL0YpA-242" target="3T-uVdfU-VrU92vL0YpA-246">
          <mxGeometry relative="1" as="geometry" />
        </mxCell>
        <mxCell id="3T-uVdfU-VrU92vL0YpA-242" value="U" style="ellipse;whiteSpace=wrap;aspect=fixed;fontSize=18;fontStyle=1" vertex="1" parent="1">
          <mxGeometry x="1066.25" y="697.5" width="50" height="50" as="geometry" />
        </mxCell>
        <mxCell id="3T-uVdfU-VrU92vL0YpA-243" value="" style="edgeStyle=orthogonalEdgeStyle;rounded=0;orthogonalLoop=1;jettySize=auto;entryX=0.5;entryY=0;entryDx=0;entryDy=0;fontFamily=Verdana;fontSize=18;exitX=0.5;exitY=1;exitDx=0;exitDy=0;" edge="1" parent="1" source="3T-uVdfU-VrU92vL0YpA-238" target="3T-uVdfU-VrU92vL0YpA-242">
          <mxGeometry relative="1" as="geometry">
            <mxPoint x="1091.25" y="677.5" as="sourcePoint" />
            <mxPoint x="1091.25" y="707.5" as="targetPoint" />
          </mxGeometry>
        </mxCell>
        <mxCell id="3T-uVdfU-VrU92vL0YpA-244" value="9" style="text;align=center;verticalAlign=middle;resizable=0;points=[];autosize=1;strokeColor=none;fillColor=none;fontSize=18;fontFamily=Verdana;" vertex="1" parent="1">
          <mxGeometry x="1088.75" y="662.5" width="30" height="40" as="geometry" />
        </mxCell>
        <mxCell id="3T-uVdfU-VrU92vL0YpA-245" value="" style="edgeStyle=orthogonalEdgeStyle;rounded=0;orthogonalLoop=1;jettySize=auto;entryX=0.5;entryY=0;entryDx=0;entryDy=0;fontFamily=Verdana;fontSize=18;" edge="1" parent="1" target="3T-uVdfU-VrU92vL0YpA-246">
          <mxGeometry relative="1" as="geometry">
            <mxPoint x="1091" y="752.5" as="sourcePoint" />
          </mxGeometry>
        </mxCell>
        <mxCell id="3T-uVdfU-VrU92vL0YpA-246" value="T" style="ellipse;whiteSpace=wrap;aspect=fixed;fontSize=18;fontStyle=1" vertex="1" parent="1">
          <mxGeometry x="1066.25" y="777.5" width="50" height="50" as="geometry" />
        </mxCell>
        <mxCell id="3T-uVdfU-VrU92vL0YpA-247" value="7" style="text;align=center;verticalAlign=middle;resizable=0;points=[];autosize=1;strokeColor=none;fillColor=none;fontSize=18;fontFamily=Verdana;" vertex="1" parent="1">
          <mxGeometry x="1093.75" y="737.5" width="30" height="40" as="geometry" />
        </mxCell>
        <mxCell id="3T-uVdfU-VrU92vL0YpA-248" value="R" style="ellipse;whiteSpace=wrap;aspect=fixed;fontSize=18;fontStyle=1" vertex="1" parent="1">
          <mxGeometry x="1066.25" y="547.5" width="50" height="50" as="geometry" />
        </mxCell>
        <mxCell id="3T-uVdfU-VrU92vL0YpA-249" value="19" style="text;align=center;verticalAlign=middle;resizable=0;points=[];autosize=1;strokeColor=none;fillColor=none;fontSize=18;" vertex="1" parent="1">
          <mxGeometry x="1083.75" y="512.5" width="40" height="40" as="geometry" />
        </mxCell>
        <mxCell id="3T-uVdfU-VrU92vL0YpA-250" value="" style="edgeStyle=orthogonalEdgeStyle;rounded=0;orthogonalLoop=1;jettySize=auto;fontFamily=Verdana;fontSize=18;exitX=0.5;exitY=1;exitDx=0;exitDy=0;" edge="1" parent="1" target="3T-uVdfU-VrU92vL0YpA-251">
          <mxGeometry relative="1" as="geometry">
            <mxPoint x="1015" y="280" as="sourcePoint" />
          </mxGeometry>
        </mxCell>
        <mxCell id="3T-uVdfU-VrU92vL0YpA-251" value="D" style="ellipse;whiteSpace=wrap;aspect=fixed;fontSize=18;fontStyle=1" vertex="1" parent="1">
          <mxGeometry x="990" y="320" width="50" height="50" as="geometry" />
        </mxCell>
        <mxCell id="3T-uVdfU-VrU92vL0YpA-252" value="30" style="text;align=center;verticalAlign=middle;resizable=0;points=[];autosize=1;strokeColor=none;fillColor=none;fontSize=18;fontFamily=Verdana;" vertex="1" parent="1">
          <mxGeometry x="1010" y="270" width="50" height="40" as="geometry" />
        </mxCell>
        <mxCell id="3T-uVdfU-VrU92vL0YpA-253" value="" style="edgeStyle=orthogonalEdgeStyle;rounded=0;orthogonalLoop=1;jettySize=auto;entryX=0.5;entryY=0;entryDx=0;entryDy=0;fontFamily=Verdana;fontSize=18;" edge="1" parent="1" target="3T-uVdfU-VrU92vL0YpA-255">
          <mxGeometry relative="1" as="geometry">
            <mxPoint x="1015" y="372.5" as="sourcePoint" />
          </mxGeometry>
        </mxCell>
        <mxCell id="3T-uVdfU-VrU92vL0YpA-254" value="" style="edgeStyle=orthogonalEdgeStyle;rounded=0;orthogonalLoop=1;jettySize=auto;entryX=0.5;entryY=0;entryDx=0;entryDy=0;fontSize=18;" edge="1" parent="1" source="3T-uVdfU-VrU92vL0YpA-255" target="3T-uVdfU-VrU92vL0YpA-237">
          <mxGeometry relative="1" as="geometry">
            <Array as="points">
              <mxPoint x="1015" y="452.5" />
              <mxPoint x="1091" y="452.5" />
            </Array>
          </mxGeometry>
        </mxCell>
        <mxCell id="3T-uVdfU-VrU92vL0YpA-255" value="I" style="ellipse;whiteSpace=wrap;aspect=fixed;fontSize=18;fontStyle=1" vertex="1" parent="1">
          <mxGeometry x="990" y="397.5" width="50" height="50" as="geometry" />
        </mxCell>
        <mxCell id="3T-uVdfU-VrU92vL0YpA-256" value="23" style="text;align=center;verticalAlign=middle;resizable=0;points=[];autosize=1;strokeColor=none;fillColor=none;fontSize=18;fontFamily=Verdana;" vertex="1" parent="1">
          <mxGeometry x="1005" y="362.5" width="50" height="40" as="geometry" />
        </mxCell>
        <mxCell id="3T-uVdfU-VrU92vL0YpA-257" value="" style="edgeStyle=orthogonalEdgeStyle;rounded=0;orthogonalLoop=1;jettySize=auto;fontSize=18;" edge="1" parent="1" target="3T-uVdfU-VrU92vL0YpA-259">
          <mxGeometry relative="1" as="geometry">
            <mxPoint x="1091" y="827.5" as="sourcePoint" />
          </mxGeometry>
        </mxCell>
        <mxCell id="3T-uVdfU-VrU92vL0YpA-258" value="" style="edgeStyle=orthogonalEdgeStyle;rounded=0;orthogonalLoop=1;jettySize=auto;entryX=0.5;entryY=0;entryDx=0;entryDy=0;fontFamily=Verdana;fontSize=18;" edge="1" parent="1" target="3T-uVdfU-VrU92vL0YpA-259">
          <mxGeometry relative="1" as="geometry">
            <mxPoint x="1091" y="832.5" as="sourcePoint" />
          </mxGeometry>
        </mxCell>
        <mxCell id="3T-uVdfU-VrU92vL0YpA-267" value="" style="edgeStyle=orthogonalEdgeStyle;rounded=0;orthogonalLoop=1;jettySize=auto;entryX=0.5;entryY=0;entryDx=0;entryDy=0;fontSize=18;" edge="1" parent="1" source="3T-uVdfU-VrU92vL0YpA-259" target="3T-uVdfU-VrU92vL0YpA-264">
          <mxGeometry relative="1" as="geometry">
            <Array as="points">
              <mxPoint x="1091" y="1000" />
              <mxPoint x="935" y="1000" />
            </Array>
          </mxGeometry>
        </mxCell>
        <mxCell id="3T-uVdfU-VrU92vL0YpA-259" value="A" style="ellipse;whiteSpace=wrap;aspect=fixed;fontSize=18;fontStyle=1" vertex="1" parent="1">
          <mxGeometry x="1066.25" y="857.5" width="50" height="50" as="geometry" />
        </mxCell>
        <mxCell id="3T-uVdfU-VrU92vL0YpA-260" value="4" style="text;align=center;verticalAlign=middle;resizable=0;points=[];autosize=1;strokeColor=none;fillColor=none;fontSize=18;fontFamily=Verdana;" vertex="1" parent="1">
          <mxGeometry x="1093.75" y="817.5" width="30" height="40" as="geometry" />
        </mxCell>
        <mxCell id="3T-uVdfU-VrU92vL0YpA-261" value="" style="edgeStyle=orthogonalEdgeStyle;rounded=0;orthogonalLoop=1;jettySize=auto;fontFamily=Verdana;fontSize=18;exitX=0.5;exitY=1;exitDx=0;exitDy=0;" edge="1" parent="1" target="3T-uVdfU-VrU92vL0YpA-262">
          <mxGeometry relative="1" as="geometry">
            <mxPoint x="1180" y="280" as="sourcePoint" />
          </mxGeometry>
        </mxCell>
        <mxCell id="3T-uVdfU-VrU92vL0YpA-281" value="" style="edgeStyle=orthogonalEdgeStyle;rounded=0;orthogonalLoop=1;jettySize=auto;entryX=0.5;entryY=0;entryDx=0;entryDy=0;fontSize=18;" edge="1" parent="1" source="3T-uVdfU-VrU92vL0YpA-262" target="3T-uVdfU-VrU92vL0YpA-275">
          <mxGeometry relative="1" as="geometry">
            <Array as="points">
              <mxPoint x="1180" y="1150" />
              <mxPoint x="635" y="1150" />
            </Array>
          </mxGeometry>
        </mxCell>
        <mxCell id="3T-uVdfU-VrU92vL0YpA-262" value=")" style="ellipse;whiteSpace=wrap;aspect=fixed;fontSize=18;fontStyle=1" vertex="1" parent="1">
          <mxGeometry x="1155" y="320" width="50" height="50" as="geometry" />
        </mxCell>
        <mxCell id="3T-uVdfU-VrU92vL0YpA-263" value="ошибка" style="text;align=center;verticalAlign=middle;resizable=0;points=[];autosize=1;strokeColor=none;fillColor=none;fontSize=18;fontFamily=Verdana;" vertex="1" parent="1">
          <mxGeometry x="1140" y="275" width="90" height="40" as="geometry" />
        </mxCell>
        <mxCell id="3T-uVdfU-VrU92vL0YpA-279" value="" style="edgeStyle=orthogonalEdgeStyle;rounded=0;orthogonalLoop=1;jettySize=auto;entryX=0.5;entryY=0;entryDx=0;entryDy=0;fontSize=18;" edge="1" parent="1" source="3T-uVdfU-VrU92vL0YpA-264" target="3T-uVdfU-VrU92vL0YpA-275">
          <mxGeometry relative="1" as="geometry">
            <Array as="points">
              <mxPoint x="935" y="1150" />
              <mxPoint x="635" y="1150" />
            </Array>
          </mxGeometry>
        </mxCell>
        <mxCell id="3T-uVdfU-VrU92vL0YpA-264" value="B" style="ellipse;whiteSpace=wrap;aspect=fixed;fontSize=18;fontStyle=1" vertex="1" parent="1">
          <mxGeometry x="910" y="1010" width="50" height="50" as="geometry" />
        </mxCell>
        <mxCell id="3T-uVdfU-VrU92vL0YpA-268" value="3" style="text;align=center;verticalAlign=middle;resizable=0;points=[];autosize=1;strokeColor=none;fillColor=none;fontSize=18;fontFamily=Verdana;" vertex="1" parent="1">
          <mxGeometry x="930" y="970" width="30" height="40" as="geometry" />
        </mxCell>
        <mxCell id="3T-uVdfU-VrU92vL0YpA-269" value="" style="edgeStyle=orthogonalEdgeStyle;rounded=0;orthogonalLoop=1;jettySize=auto;fontFamily=Verdana;fontSize=18;" edge="1" parent="1" source="3T-uVdfU-VrU92vL0YpA-270" target="3T-uVdfU-VrU92vL0YpA-272">
          <mxGeometry relative="1" as="geometry" />
        </mxCell>
        <mxCell id="3T-uVdfU-VrU92vL0YpA-270" value="L" style="ellipse;whiteSpace=wrap;aspect=fixed;fontSize=18;fontStyle=1" vertex="1" parent="1">
          <mxGeometry x="110" y="317.5" width="50" height="50" as="geometry" />
        </mxCell>
        <mxCell id="3T-uVdfU-VrU92vL0YpA-271" value="" style="edgeStyle=orthogonalEdgeStyle;rounded=0;orthogonalLoop=1;jettySize=auto;fontFamily=Verdana;fontSize=18;entryX=0.5;entryY=0;entryDx=0;entryDy=0;" edge="1" parent="1" target="3T-uVdfU-VrU92vL0YpA-270">
          <mxGeometry relative="1" as="geometry">
            <mxPoint x="64.99999999999977" y="327.5" as="targetPoint" />
            <mxPoint x="135" y="280" as="sourcePoint" />
          </mxGeometry>
        </mxCell>
        <mxCell id="3T-uVdfU-VrU92vL0YpA-276" value="" style="edgeStyle=orthogonalEdgeStyle;rounded=0;orthogonalLoop=1;jettySize=auto;entryX=0.5;entryY=0;entryDx=0;entryDy=0;fontSize=18;" edge="1" parent="1" source="3T-uVdfU-VrU92vL0YpA-272" target="3T-uVdfU-VrU92vL0YpA-275">
          <mxGeometry relative="1" as="geometry">
            <Array as="points">
              <mxPoint x="135" y="1150" />
              <mxPoint x="635" y="1150" />
            </Array>
          </mxGeometry>
        </mxCell>
        <mxCell id="3T-uVdfU-VrU92vL0YpA-272" value="V" style="ellipse;whiteSpace=wrap;aspect=fixed;fontSize=18;fontStyle=1" vertex="1" parent="1">
          <mxGeometry x="110" y="397.5" width="50" height="50" as="geometry" />
        </mxCell>
        <mxCell id="3T-uVdfU-VrU92vL0YpA-273" value="29" style="text;align=center;verticalAlign=middle;resizable=0;points=[];autosize=1;strokeColor=none;fillColor=none;fontSize=18;fontFamily=Verdana;" vertex="1" parent="1">
          <mxGeometry x="130" y="280" width="50" height="40" as="geometry" />
        </mxCell>
        <mxCell id="3T-uVdfU-VrU92vL0YpA-274" value="16" style="text;align=center;verticalAlign=middle;resizable=0;points=[];autosize=1;strokeColor=none;fillColor=none;fontSize=18;fontFamily=Verdana;" vertex="1" parent="1">
          <mxGeometry x="130" y="360" width="50" height="40" as="geometry" />
        </mxCell>
        <mxCell id="3T-uVdfU-VrU92vL0YpA-275" value="F" style="ellipse;whiteSpace=wrap;aspect=fixed;fontSize=18;fontStyle=1" vertex="1" parent="1">
          <mxGeometry x="610" y="1200" width="50" height="50" as="geometry" />
        </mxCell>
        <mxCell id="3T-uVdfU-VrU92vL0YpA-283" value="15" style="text;align=center;verticalAlign=middle;resizable=0;points=[];autosize=1;strokeColor=none;fillColor=none;fontSize=18;fontFamily=Verdana;" vertex="1" parent="1">
          <mxGeometry x="610" y="1100" width="50" height="40" as="geometry" />
        </mxCell>
        <mxCell id="3T-uVdfU-VrU92vL0YpA-414" value="" style="edgeStyle=orthogonalEdgeStyle;rounded=0;orthogonalLoop=1;jettySize=auto;entryX=0.5;entryY=0;entryDx=0;entryDy=0;fontSize=18;" edge="1" parent="1" source="3T-uVdfU-VrU92vL0YpA-284" target="3T-uVdfU-VrU92vL0YpA-413">
          <mxGeometry relative="1" as="geometry">
            <Array as="points">
              <mxPoint x="185" y="2610" />
              <mxPoint x="565" y="2610" />
            </Array>
          </mxGeometry>
        </mxCell>
        <mxCell id="3T-uVdfU-VrU92vL0YpA-284" value="(" style="ellipse;whiteSpace=wrap;aspect=fixed;fontSize=18;fontStyle=1" vertex="1" parent="1">
          <mxGeometry x="160" y="1392.5" width="50" height="50" as="geometry" />
        </mxCell>
        <mxCell id="3T-uVdfU-VrU92vL0YpA-285" value="F" style="ellipse;whiteSpace=wrap;aspect=fixed;fontSize=18;fontStyle=1" vertex="1" parent="1">
          <mxGeometry x="240" y="1392.5" width="50" height="50" as="geometry" />
        </mxCell>
        <mxCell id="3T-uVdfU-VrU92vL0YpA-286" value="." style="ellipse;whiteSpace=wrap;aspect=fixed;fontSize=18;fontStyle=1" vertex="1" parent="1">
          <mxGeometry x="890" y="1392.5" width="50" height="50" as="geometry" />
        </mxCell>
        <mxCell id="3T-uVdfU-VrU92vL0YpA-373" value="" style="edgeStyle=orthogonalEdgeStyle;rounded=0;orthogonalLoop=1;jettySize=auto;entryX=0.5;entryY=0;entryDx=0;entryDy=0;fontSize=18;" edge="1" parent="1" source="3T-uVdfU-VrU92vL0YpA-287" target="3T-uVdfU-VrU92vL0YpA-368">
          <mxGeometry relative="1" as="geometry">
            <Array as="points">
              <mxPoint x="1075" y="2170" />
              <mxPoint x="713" y="2170" />
            </Array>
          </mxGeometry>
        </mxCell>
        <mxCell id="3T-uVdfU-VrU92vL0YpA-287" value=")" style="ellipse;whiteSpace=wrap;aspect=fixed;fontSize=18;fontStyle=1" vertex="1" parent="1">
          <mxGeometry x="1050" y="1392.5" width="50" height="50" as="geometry" />
        </mxCell>
        <mxCell id="3T-uVdfU-VrU92vL0YpA-288" value="3" style="ellipse;whiteSpace=wrap;aspect=fixed;fontSize=18;fontStyle=1" vertex="1" parent="1">
          <mxGeometry x="803.75" y="1392.5" width="50" height="50" as="geometry" />
        </mxCell>
        <mxCell id="3T-uVdfU-VrU92vL0YpA-289" value="2" style="ellipse;whiteSpace=wrap;aspect=fixed;fontSize=18;fontStyle=1" vertex="1" parent="1">
          <mxGeometry x="970" y="1392.5" width="50" height="50" as="geometry" />
        </mxCell>
        <mxCell id="3T-uVdfU-VrU92vL0YpA-374" value="" style="edgeStyle=orthogonalEdgeStyle;rounded=0;orthogonalLoop=1;jettySize=auto;entryX=0.5;entryY=0;entryDx=0;entryDy=0;fontSize=18;" edge="1" parent="1" source="3T-uVdfU-VrU92vL0YpA-290" target="3T-uVdfU-VrU92vL0YpA-368">
          <mxGeometry relative="1" as="geometry">
            <mxPoint x="710" y="2210" as="targetPoint" />
            <Array as="points">
              <mxPoint x="665" y="2170" />
              <mxPoint x="712" y="2170" />
            </Array>
          </mxGeometry>
        </mxCell>
        <mxCell id="3T-uVdfU-VrU92vL0YpA-290" value="(" style="ellipse;whiteSpace=wrap;aspect=fixed;fontSize=18;fontStyle=1" vertex="1" parent="1">
          <mxGeometry x="640" y="1392.5" width="50" height="50" as="geometry" />
        </mxCell>
        <mxCell id="3T-uVdfU-VrU92vL0YpA-291" value="2" style="ellipse;whiteSpace=wrap;aspect=fixed;fontSize=18;fontStyle=1" vertex="1" parent="1">
          <mxGeometry x="720" y="1392.5" width="50" height="50" as="geometry" />
        </mxCell>
        <mxCell id="3T-uVdfU-VrU92vL0YpA-292" value="/" style="ellipse;whiteSpace=wrap;aspect=fixed;fontSize=18;fontStyle=1" vertex="1" parent="1">
          <mxGeometry x="140" y="2750" width="50" height="50" as="geometry" />
        </mxCell>
        <mxCell id="3T-uVdfU-VrU92vL0YpA-416" value="" style="edgeStyle=orthogonalEdgeStyle;rounded=0;orthogonalLoop=1;jettySize=auto;entryX=0.5;entryY=0;entryDx=0;entryDy=0;fontSize=18;" edge="1" parent="1" source="3T-uVdfU-VrU92vL0YpA-293" target="3T-uVdfU-VrU92vL0YpA-413">
          <mxGeometry relative="1" as="geometry">
            <Array as="points">
              <mxPoint x="1155" y="2610" />
              <mxPoint x="565" y="2610" />
            </Array>
          </mxGeometry>
        </mxCell>
        <mxCell id="3T-uVdfU-VrU92vL0YpA-293" value=")" style="ellipse;whiteSpace=wrap;aspect=fixed;fontSize=18;fontStyle=1" vertex="1" parent="1">
          <mxGeometry x="1130" y="1392.5" width="50" height="50" as="geometry" />
        </mxCell>
        <mxCell id="3T-uVdfU-VrU92vL0YpA-294" value="m" style="ellipse;whiteSpace=wrap;aspect=fixed;fontSize=18;fontStyle=1;fillColor=#f8cecc;strokeColor=#b85450;" vertex="1" parent="1">
          <mxGeometry x="540" y="2750" width="50" height="50" as="geometry" />
        </mxCell>
        <mxCell id="3T-uVdfU-VrU92vL0YpA-525" value="" style="edgeStyle=orthogonalEdgeStyle;rounded=0;orthogonalLoop=1;jettySize=auto;entryX=0.5;entryY=0;entryDx=0;entryDy=0;fontSize=18;" edge="1" parent="1" source="3T-uVdfU-VrU92vL0YpA-295" target="3T-uVdfU-VrU92vL0YpA-526">
          <mxGeometry relative="1" as="geometry">
            <mxPoint x="725" y="3130" as="targetPoint" />
          </mxGeometry>
        </mxCell>
        <mxCell id="3T-uVdfU-VrU92vL0YpA-295" value="*" style="ellipse;whiteSpace=wrap;aspect=fixed;fontSize=18;fontStyle=1" vertex="1" parent="1">
          <mxGeometry x="700" y="2750" width="50" height="50" as="geometry" />
        </mxCell>
        <mxCell id="3T-uVdfU-VrU92vL0YpA-296" value="2" style="ellipse;whiteSpace=wrap;aspect=fixed;fontSize=18;fontStyle=1" vertex="1" parent="1">
          <mxGeometry x="460" y="2750" width="50" height="50" as="geometry" />
        </mxCell>
        <mxCell id="3T-uVdfU-VrU92vL0YpA-476" value="" style="edgeStyle=orthogonalEdgeStyle;rounded=0;orthogonalLoop=1;jettySize=auto;entryX=0.5;entryY=0;entryDx=0;entryDy=0;fontSize=18;" edge="1" parent="1" source="3T-uVdfU-VrU92vL0YpA-297" target="3T-uVdfU-VrU92vL0YpA-474">
          <mxGeometry relative="1" as="geometry">
            <mxPoint x="540" y="3460" as="targetPoint" />
            <Array as="points">
              <mxPoint x="645" y="3480" />
              <mxPoint x="395" y="3480" />
            </Array>
          </mxGeometry>
        </mxCell>
        <mxCell id="3T-uVdfU-VrU92vL0YpA-297" value=")" style="ellipse;whiteSpace=wrap;aspect=fixed;fontSize=18;fontStyle=1" vertex="1" parent="1">
          <mxGeometry x="620" y="2750" width="50" height="50" as="geometry" />
        </mxCell>
        <mxCell id="3T-uVdfU-VrU92vL0YpA-298" value="x" style="ellipse;whiteSpace=wrap;aspect=fixed;fontSize=18;fontStyle=1" vertex="1" parent="1">
          <mxGeometry x="290" y="2750" width="50" height="50" as="geometry" />
        </mxCell>
        <mxCell id="3T-uVdfU-VrU92vL0YpA-467" value="" style="edgeStyle=orthogonalEdgeStyle;rounded=0;orthogonalLoop=1;jettySize=auto;entryX=0.5;entryY=0;entryDx=0;entryDy=0;fontSize=18;" edge="1" parent="1" source="3T-uVdfU-VrU92vL0YpA-299" target="3T-uVdfU-VrU92vL0YpA-466">
          <mxGeometry relative="1" as="geometry" />
        </mxCell>
        <mxCell id="3T-uVdfU-VrU92vL0YpA-299" value="-" style="ellipse;whiteSpace=wrap;aspect=fixed;fontSize=18;fontStyle=1" vertex="1" parent="1">
          <mxGeometry x="370" y="2750" width="50" height="50" as="geometry" />
        </mxCell>
        <mxCell id="3T-uVdfU-VrU92vL0YpA-302" value="2" style="ellipse;whiteSpace=wrap;aspect=fixed;fontSize=18;fontStyle=1" vertex="1" parent="1">
          <mxGeometry x="945" y="2750" width="50" height="50" as="geometry" />
        </mxCell>
        <mxCell id="3T-uVdfU-VrU92vL0YpA-304" value="y" style="ellipse;whiteSpace=wrap;aspect=fixed;fontSize=18;fontStyle=1" vertex="1" parent="1">
          <mxGeometry x="780" y="2750" width="50" height="50" as="geometry" />
        </mxCell>
        <mxCell id="3T-uVdfU-VrU92vL0YpA-521" value="" style="edgeStyle=orthogonalEdgeStyle;rounded=0;orthogonalLoop=1;jettySize=auto;fontSize=18;" edge="1" parent="1" source="3T-uVdfU-VrU92vL0YpA-305" target="3T-uVdfU-VrU92vL0YpA-520">
          <mxGeometry relative="1" as="geometry" />
        </mxCell>
        <mxCell id="3T-uVdfU-VrU92vL0YpA-305" value="^" style="ellipse;whiteSpace=wrap;aspect=fixed;fontSize=18;fontStyle=1" vertex="1" parent="1">
          <mxGeometry x="860" y="2750" width="50" height="50" as="geometry" />
        </mxCell>
        <mxCell id="3T-uVdfU-VrU92vL0YpA-308" value="" style="edgeStyle=orthogonalEdgeStyle;rounded=0;orthogonalLoop=1;jettySize=auto;entryX=0.5;entryY=0;entryDx=0;entryDy=0;fontFamily=Verdana;fontSize=18;" edge="1" parent="1" target="3T-uVdfU-VrU92vL0YpA-315">
          <mxGeometry relative="1" as="geometry">
            <mxPoint x="505" y="1442.5" as="sourcePoint" />
          </mxGeometry>
        </mxCell>
        <mxCell id="3T-uVdfU-VrU92vL0YpA-309" value="" style="edgeStyle=orthogonalEdgeStyle;rounded=0;orthogonalLoop=1;jettySize=auto;fontFamily=Verdana;fontSize=18;" edge="1" parent="1" target="3T-uVdfU-VrU92vL0YpA-316">
          <mxGeometry relative="1" as="geometry">
            <mxPoint x="585" y="1442.5" as="sourcePoint" />
          </mxGeometry>
        </mxCell>
        <mxCell id="3T-uVdfU-VrU92vL0YpA-310" value="" style="edgeStyle=orthogonalEdgeStyle;rounded=0;orthogonalLoop=1;jettySize=auto;fontFamily=Verdana;fontSize=18;" edge="1" parent="1" source="3T-uVdfU-VrU92vL0YpA-311" target="3T-uVdfU-VrU92vL0YpA-314">
          <mxGeometry relative="1" as="geometry" />
        </mxCell>
        <mxCell id="3T-uVdfU-VrU92vL0YpA-311" value="L" style="ellipse;whiteSpace=wrap;aspect=fixed;fontSize=18;fontStyle=1" vertex="1" parent="1">
          <mxGeometry x="400" y="1482.5" width="50" height="50" as="geometry" />
        </mxCell>
        <mxCell id="3T-uVdfU-VrU92vL0YpA-312" value="" style="edgeStyle=orthogonalEdgeStyle;rounded=0;orthogonalLoop=1;jettySize=auto;fontFamily=Verdana;fontSize=18;exitX=0.5;exitY=1;exitDx=0;exitDy=0;entryX=0.5;entryY=0;entryDx=0;entryDy=0;" edge="1" parent="1" target="3T-uVdfU-VrU92vL0YpA-311">
          <mxGeometry relative="1" as="geometry">
            <mxPoint x="354.9999999999998" y="1492.5" as="targetPoint" />
            <mxPoint x="425" y="1442.5" as="sourcePoint" />
          </mxGeometry>
        </mxCell>
        <mxCell id="3T-uVdfU-VrU92vL0YpA-313" value="29" style="text;align=center;verticalAlign=middle;resizable=0;points=[];autosize=1;strokeColor=none;fillColor=none;fontSize=18;fontFamily=Verdana;" vertex="1" parent="1">
          <mxGeometry x="415" y="1447.5" width="50" height="40" as="geometry" />
        </mxCell>
        <mxCell id="3T-uVdfU-VrU92vL0YpA-314" value="V" style="ellipse;whiteSpace=wrap;aspect=fixed;fontSize=18;fontStyle=1" vertex="1" parent="1">
          <mxGeometry x="400" y="1562.5" width="50" height="50" as="geometry" />
        </mxCell>
        <mxCell id="3T-uVdfU-VrU92vL0YpA-315" value="L" style="ellipse;whiteSpace=wrap;aspect=fixed;fontSize=18;fontStyle=1" vertex="1" parent="1">
          <mxGeometry x="480" y="1482.5" width="50" height="50" as="geometry" />
        </mxCell>
        <mxCell id="3T-uVdfU-VrU92vL0YpA-316" value="L" style="ellipse;whiteSpace=wrap;aspect=fixed;fontSize=18;fontStyle=1" vertex="1" parent="1">
          <mxGeometry x="560" y="1482.5" width="50" height="50" as="geometry" />
        </mxCell>
        <mxCell id="3T-uVdfU-VrU92vL0YpA-317" value="V" style="ellipse;whiteSpace=wrap;aspect=fixed;fontSize=18;fontStyle=1" vertex="1" parent="1">
          <mxGeometry x="450" y="1632.5" width="50" height="50" as="geometry" />
        </mxCell>
        <mxCell id="3T-uVdfU-VrU92vL0YpA-318" value="" style="endArrow=classic;rounded=0;fontFamily=Verdana;fontSize=18;exitX=0.5;exitY=1;exitDx=0;exitDy=0;entryX=0.407;entryY=-0.007;entryDx=0;entryDy=0;entryPerimeter=0;" edge="1" parent="1" source="3T-uVdfU-VrU92vL0YpA-314" target="3T-uVdfU-VrU92vL0YpA-317">
          <mxGeometry width="50" height="50" relative="1" as="geometry">
            <mxPoint x="480" y="1632.5" as="sourcePoint" />
            <mxPoint x="530" y="1582.5" as="targetPoint" />
          </mxGeometry>
        </mxCell>
        <mxCell id="3T-uVdfU-VrU92vL0YpA-319" value="" style="endArrow=classic;rounded=0;fontFamily=Verdana;fontSize=18;entryX=0.5;entryY=0;entryDx=0;entryDy=0;" edge="1" parent="1" source="3T-uVdfU-VrU92vL0YpA-315" target="3T-uVdfU-VrU92vL0YpA-317">
          <mxGeometry width="50" height="50" relative="1" as="geometry">
            <mxPoint x="435" y="1622.5" as="sourcePoint" />
            <mxPoint x="480" y="1642.5" as="targetPoint" />
          </mxGeometry>
        </mxCell>
        <mxCell id="3T-uVdfU-VrU92vL0YpA-375" value="" style="edgeStyle=orthogonalEdgeStyle;rounded=0;orthogonalLoop=1;jettySize=auto;entryX=0.5;entryY=0;entryDx=0;entryDy=0;fontSize=18;" edge="1" parent="1" source="3T-uVdfU-VrU92vL0YpA-320" target="3T-uVdfU-VrU92vL0YpA-368">
          <mxGeometry relative="1" as="geometry">
            <mxPoint x="620" y="2162.0689655172414" as="targetPoint" />
            <Array as="points">
              <mxPoint x="545" y="2170" />
              <mxPoint x="712" y="2170" />
            </Array>
          </mxGeometry>
        </mxCell>
        <mxCell id="3T-uVdfU-VrU92vL0YpA-320" value="V" style="ellipse;whiteSpace=wrap;aspect=fixed;fontSize=18;fontStyle=1" vertex="1" parent="1">
          <mxGeometry x="520" y="1692.5" width="50" height="50" as="geometry" />
        </mxCell>
        <mxCell id="3T-uVdfU-VrU92vL0YpA-321" value="" style="endArrow=classic;rounded=0;fontFamily=Verdana;fontSize=18;entryX=0.407;entryY=-0.007;entryDx=0;entryDy=0;entryPerimeter=0;exitX=1;exitY=1;exitDx=0;exitDy=0;" edge="1" parent="1" source="3T-uVdfU-VrU92vL0YpA-317" target="3T-uVdfU-VrU92vL0YpA-320">
          <mxGeometry width="50" height="50" relative="1" as="geometry">
            <mxPoint x="530" y="1653.5" as="sourcePoint" />
            <mxPoint x="635" y="1623.5" as="targetPoint" />
          </mxGeometry>
        </mxCell>
        <mxCell id="3T-uVdfU-VrU92vL0YpA-322" value="" style="endArrow=classic;rounded=0;fontFamily=Verdana;fontSize=18;entryX=0.5;entryY=0;entryDx=0;entryDy=0;exitX=0.5;exitY=1;exitDx=0;exitDy=0;" edge="1" parent="1" source="3T-uVdfU-VrU92vL0YpA-316" target="3T-uVdfU-VrU92vL0YpA-320">
          <mxGeometry width="50" height="50" relative="1" as="geometry">
            <mxPoint x="590" y="1542.5" as="sourcePoint" />
            <mxPoint x="585" y="1683.5" as="targetPoint" />
          </mxGeometry>
        </mxCell>
        <mxCell id="3T-uVdfU-VrU92vL0YpA-323" value="29" style="text;align=center;verticalAlign=middle;resizable=0;points=[];autosize=1;strokeColor=none;fillColor=none;fontSize=18;fontFamily=Verdana;" vertex="1" parent="1">
          <mxGeometry x="495" y="1447.5" width="50" height="40" as="geometry" />
        </mxCell>
        <mxCell id="3T-uVdfU-VrU92vL0YpA-324" value="29" style="text;align=center;verticalAlign=middle;resizable=0;points=[];autosize=1;strokeColor=none;fillColor=none;fontSize=18;fontFamily=Verdana;" vertex="1" parent="1">
          <mxGeometry x="575" y="1447.5" width="50" height="40" as="geometry" />
        </mxCell>
        <mxCell id="3T-uVdfU-VrU92vL0YpA-325" value="16" style="text;align=center;verticalAlign=middle;resizable=0;points=[];autosize=1;strokeColor=none;fillColor=none;fontSize=18;fontFamily=Verdana;" vertex="1" parent="1">
          <mxGeometry x="415" y="1527.5" width="50" height="40" as="geometry" />
        </mxCell>
        <mxCell id="3T-uVdfU-VrU92vL0YpA-326" value="17" style="text;align=center;verticalAlign=middle;resizable=0;points=[];autosize=1;strokeColor=none;fillColor=none;fontSize=18;fontFamily=Verdana;" vertex="1" parent="1">
          <mxGeometry x="435" y="1587.5" width="50" height="40" as="geometry" />
        </mxCell>
        <mxCell id="3T-uVdfU-VrU92vL0YpA-327" value="17" style="text;align=center;verticalAlign=middle;resizable=0;points=[];autosize=1;strokeColor=none;fillColor=none;fontSize=18;fontFamily=Verdana;" vertex="1" parent="1">
          <mxGeometry x="495" y="1647.5" width="50" height="40" as="geometry" />
        </mxCell>
        <mxCell id="3T-uVdfU-VrU92vL0YpA-328" value="" style="edgeStyle=orthogonalEdgeStyle;rounded=0;orthogonalLoop=1;jettySize=auto;fontFamily=Verdana;fontSize=18;" edge="1" parent="1" target="3T-uVdfU-VrU92vL0YpA-329">
          <mxGeometry relative="1" as="geometry">
            <mxPoint x="747.5" y="1442.5" as="sourcePoint" />
          </mxGeometry>
        </mxCell>
        <mxCell id="3T-uVdfU-VrU92vL0YpA-329" value="D" style="ellipse;whiteSpace=wrap;aspect=fixed;fontSize=18;fontStyle=1" vertex="1" parent="1">
          <mxGeometry x="722.5" y="1482.5" width="50" height="50" as="geometry" />
        </mxCell>
        <mxCell id="3T-uVdfU-VrU92vL0YpA-330" value="30" style="text;align=center;verticalAlign=middle;resizable=0;points=[];autosize=1;strokeColor=none;fillColor=none;fontSize=18;fontFamily=Verdana;" vertex="1" parent="1">
          <mxGeometry x="737.5" y="1447.5" width="50" height="40" as="geometry" />
        </mxCell>
        <mxCell id="3T-uVdfU-VrU92vL0YpA-331" value="" style="edgeStyle=orthogonalEdgeStyle;rounded=0;orthogonalLoop=1;jettySize=auto;entryX=0.5;entryY=0;entryDx=0;entryDy=0;fontFamily=Verdana;fontSize=18;" edge="1" parent="1" target="3T-uVdfU-VrU92vL0YpA-332">
          <mxGeometry relative="1" as="geometry">
            <mxPoint x="747.5" y="1532.5" as="sourcePoint" />
          </mxGeometry>
        </mxCell>
        <mxCell id="3T-uVdfU-VrU92vL0YpA-332" value="I" style="ellipse;whiteSpace=wrap;aspect=fixed;fontSize=18;fontStyle=1" vertex="1" parent="1">
          <mxGeometry x="722.5" y="1557.5" width="50" height="50" as="geometry" />
        </mxCell>
        <mxCell id="3T-uVdfU-VrU92vL0YpA-333" value="23" style="text;align=center;verticalAlign=middle;resizable=0;points=[];autosize=1;strokeColor=none;fillColor=none;fontSize=18;fontFamily=Verdana;" vertex="1" parent="1">
          <mxGeometry x="737.5" y="1522.5" width="50" height="40" as="geometry" />
        </mxCell>
        <mxCell id="3T-uVdfU-VrU92vL0YpA-334" value="" style="edgeStyle=orthogonalEdgeStyle;rounded=0;orthogonalLoop=1;jettySize=auto;fontFamily=Verdana;fontSize=18;" edge="1" parent="1" target="3T-uVdfU-VrU92vL0YpA-335">
          <mxGeometry relative="1" as="geometry">
            <mxPoint x="827.5" y="1442.5" as="sourcePoint" />
          </mxGeometry>
        </mxCell>
        <mxCell id="3T-uVdfU-VrU92vL0YpA-335" value="D" style="ellipse;whiteSpace=wrap;aspect=fixed;fontSize=18;fontStyle=1" vertex="1" parent="1">
          <mxGeometry x="802.5" y="1482.5" width="50" height="50" as="geometry" />
        </mxCell>
        <mxCell id="3T-uVdfU-VrU92vL0YpA-336" value="30" style="text;align=center;verticalAlign=middle;resizable=0;points=[];autosize=1;strokeColor=none;fillColor=none;fontSize=18;fontFamily=Verdana;" vertex="1" parent="1">
          <mxGeometry x="817.5" y="1447.5" width="50" height="40" as="geometry" />
        </mxCell>
        <mxCell id="3T-uVdfU-VrU92vL0YpA-337" value="" style="edgeStyle=orthogonalEdgeStyle;rounded=0;orthogonalLoop=1;jettySize=auto;entryX=0.5;entryY=0;entryDx=0;entryDy=0;fontFamily=Verdana;fontSize=18;" edge="1" parent="1" target="3T-uVdfU-VrU92vL0YpA-338">
          <mxGeometry relative="1" as="geometry">
            <mxPoint x="827.5" y="1532.5" as="sourcePoint" />
          </mxGeometry>
        </mxCell>
        <mxCell id="3T-uVdfU-VrU92vL0YpA-360" value="" style="edgeStyle=orthogonalEdgeStyle;rounded=0;orthogonalLoop=1;jettySize=auto;entryX=0.5;entryY=0;entryDx=0;entryDy=0;fontSize=18;" edge="1" parent="1" source="3T-uVdfU-VrU92vL0YpA-338" target="3T-uVdfU-VrU92vL0YpA-349">
          <mxGeometry relative="1" as="geometry">
            <Array as="points">
              <mxPoint x="915" y="1670" />
            </Array>
          </mxGeometry>
        </mxCell>
        <mxCell id="3T-uVdfU-VrU92vL0YpA-338" value="I" style="ellipse;whiteSpace=wrap;aspect=fixed;fontSize=18;fontStyle=1" vertex="1" parent="1">
          <mxGeometry x="802.5" y="1637.5" width="50" height="50" as="geometry" />
        </mxCell>
        <mxCell id="3T-uVdfU-VrU92vL0YpA-339" value="24" style="text;align=center;verticalAlign=middle;resizable=0;points=[];autosize=1;strokeColor=none;fillColor=none;fontSize=18;fontFamily=Verdana;" vertex="1" parent="1">
          <mxGeometry x="772.5" y="1592.5" width="50" height="40" as="geometry" />
        </mxCell>
        <mxCell id="3T-uVdfU-VrU92vL0YpA-340" value="" style="endArrow=classic;rounded=0;entryX=0.5;entryY=0;entryDx=0;entryDy=0;exitX=0.5;exitY=1;exitDx=0;exitDy=0;fontSize=18;" edge="1" parent="1" source="3T-uVdfU-VrU92vL0YpA-332" target="3T-uVdfU-VrU92vL0YpA-338">
          <mxGeometry width="50" height="50" relative="1" as="geometry">
            <mxPoint x="732.5" y="1712.5" as="sourcePoint" />
            <mxPoint x="782.5" y="1662.5" as="targetPoint" />
          </mxGeometry>
        </mxCell>
        <mxCell id="3T-uVdfU-VrU92vL0YpA-341" value="" style="edgeStyle=orthogonalEdgeStyle;rounded=0;orthogonalLoop=1;jettySize=auto;entryX=0.5;entryY=0;entryDx=0;entryDy=0;fontSize=18;exitX=0.5;exitY=1;exitDx=0;exitDy=0;" edge="1" parent="1" source="3T-uVdfU-VrU92vL0YpA-286" target="3T-uVdfU-VrU92vL0YpA-349">
          <mxGeometry relative="1" as="geometry">
            <mxPoint x="910" y="1440" as="sourcePoint" />
          </mxGeometry>
        </mxCell>
        <mxCell id="3T-uVdfU-VrU92vL0YpA-342" value="" style="edgeStyle=orthogonalEdgeStyle;rounded=0;orthogonalLoop=1;jettySize=auto;fontFamily=Verdana;fontSize=18;" edge="1" parent="1" target="3T-uVdfU-VrU92vL0YpA-343">
          <mxGeometry relative="1" as="geometry">
            <mxPoint x="995" y="1442.5" as="sourcePoint" />
          </mxGeometry>
        </mxCell>
        <mxCell id="3T-uVdfU-VrU92vL0YpA-343" value="D" style="ellipse;whiteSpace=wrap;aspect=fixed;fontSize=18;fontStyle=1" vertex="1" parent="1">
          <mxGeometry x="970" y="1482.5" width="50" height="50" as="geometry" />
        </mxCell>
        <mxCell id="3T-uVdfU-VrU92vL0YpA-344" value="30" style="text;align=center;verticalAlign=middle;resizable=0;points=[];autosize=1;strokeColor=none;fillColor=none;fontSize=18;fontFamily=Verdana;" vertex="1" parent="1">
          <mxGeometry x="985" y="1447.5" width="50" height="40" as="geometry" />
        </mxCell>
        <mxCell id="3T-uVdfU-VrU92vL0YpA-345" value="" style="edgeStyle=orthogonalEdgeStyle;rounded=0;orthogonalLoop=1;jettySize=auto;entryX=0.5;entryY=0;entryDx=0;entryDy=0;fontFamily=Verdana;fontSize=18;" edge="1" parent="1" target="3T-uVdfU-VrU92vL0YpA-347">
          <mxGeometry relative="1" as="geometry">
            <mxPoint x="995" y="1532.5" as="sourcePoint" />
          </mxGeometry>
        </mxCell>
        <mxCell id="3T-uVdfU-VrU92vL0YpA-346" value="" style="edgeStyle=orthogonalEdgeStyle;rounded=0;orthogonalLoop=1;jettySize=auto;entryX=0.5;entryY=0;entryDx=0;entryDy=0;fontSize=18;" edge="1" parent="1" source="3T-uVdfU-VrU92vL0YpA-347" target="3T-uVdfU-VrU92vL0YpA-349">
          <mxGeometry relative="1" as="geometry">
            <Array as="points">
              <mxPoint x="995" y="1670" />
              <mxPoint x="915" y="1670" />
            </Array>
          </mxGeometry>
        </mxCell>
        <mxCell id="3T-uVdfU-VrU92vL0YpA-347" value="I" style="ellipse;whiteSpace=wrap;aspect=fixed;fontSize=18;fontStyle=1" vertex="1" parent="1">
          <mxGeometry x="970" y="1557.5" width="50" height="50" as="geometry" />
        </mxCell>
        <mxCell id="3T-uVdfU-VrU92vL0YpA-348" value="23" style="text;align=center;verticalAlign=middle;resizable=0;points=[];autosize=1;strokeColor=none;fillColor=none;fontSize=18;fontFamily=Verdana;" vertex="1" parent="1">
          <mxGeometry x="985" y="1522.5" width="50" height="40" as="geometry" />
        </mxCell>
        <mxCell id="3T-uVdfU-VrU92vL0YpA-349" value="R" style="ellipse;whiteSpace=wrap;aspect=fixed;fontSize=18;fontStyle=1" vertex="1" parent="1">
          <mxGeometry x="890" y="1710" width="50" height="50" as="geometry" />
        </mxCell>
        <mxCell id="3T-uVdfU-VrU92vL0YpA-350" value="22" style="text;align=center;verticalAlign=middle;resizable=0;points=[];autosize=1;strokeColor=none;fillColor=none;fontSize=18;fontFamily=Verdana;" vertex="1" parent="1">
          <mxGeometry x="910" y="1637.5" width="50" height="40" as="geometry" />
        </mxCell>
        <mxCell id="3T-uVdfU-VrU92vL0YpA-351" value="" style="edgeStyle=orthogonalEdgeStyle;rounded=0;orthogonalLoop=1;jettySize=auto;entryX=0.5;entryY=0;entryDx=0;entryDy=0;fontFamily=Verdana;fontSize=18;exitX=0.5;exitY=1;exitDx=0;exitDy=0;" edge="1" parent="1" source="3T-uVdfU-VrU92vL0YpA-349" target="3T-uVdfU-VrU92vL0YpA-352">
          <mxGeometry relative="1" as="geometry">
            <mxPoint x="915" y="1762.5" as="sourcePoint" />
          </mxGeometry>
        </mxCell>
        <mxCell id="3T-uVdfU-VrU92vL0YpA-352" value="H" style="ellipse;whiteSpace=wrap;aspect=fixed;fontSize=18;fontStyle=1" vertex="1" parent="1">
          <mxGeometry x="890" y="1797.5" width="50" height="50" as="geometry" />
        </mxCell>
        <mxCell id="3T-uVdfU-VrU92vL0YpA-353" value="13" style="text;align=center;verticalAlign=middle;resizable=0;points=[];autosize=1;strokeColor=none;fillColor=none;fontSize=18;fontFamily=Verdana;" vertex="1" parent="1">
          <mxGeometry x="905" y="1757.5" width="50" height="40" as="geometry" />
        </mxCell>
        <mxCell id="3T-uVdfU-VrU92vL0YpA-354" value="U" style="ellipse;whiteSpace=wrap;aspect=fixed;fontSize=18;fontStyle=1" vertex="1" parent="1">
          <mxGeometry x="890" y="1867.5" width="50" height="50" as="geometry" />
        </mxCell>
        <mxCell id="3T-uVdfU-VrU92vL0YpA-355" value="" style="edgeStyle=orthogonalEdgeStyle;rounded=0;orthogonalLoop=1;jettySize=auto;entryX=0.5;entryY=0;entryDx=0;entryDy=0;fontFamily=Verdana;fontSize=18;exitX=0.5;exitY=1;exitDx=0;exitDy=0;" edge="1" parent="1" source="3T-uVdfU-VrU92vL0YpA-352" target="3T-uVdfU-VrU92vL0YpA-354">
          <mxGeometry relative="1" as="geometry">
            <mxPoint x="915" y="1847.5" as="sourcePoint" />
            <mxPoint x="915" y="1877.5" as="targetPoint" />
          </mxGeometry>
        </mxCell>
        <mxCell id="3T-uVdfU-VrU92vL0YpA-356" value="9" style="text;align=center;verticalAlign=middle;resizable=0;points=[];autosize=1;strokeColor=none;fillColor=none;fontSize=18;fontFamily=Verdana;" vertex="1" parent="1">
          <mxGeometry x="912.5" y="1832.5" width="30" height="40" as="geometry" />
        </mxCell>
        <mxCell id="3T-uVdfU-VrU92vL0YpA-357" value="" style="edgeStyle=orthogonalEdgeStyle;rounded=0;orthogonalLoop=1;jettySize=auto;entryX=0.5;entryY=0;entryDx=0;entryDy=0;fontFamily=Verdana;fontSize=18;exitX=0.5;exitY=1;exitDx=0;exitDy=0;" edge="1" parent="1" source="3T-uVdfU-VrU92vL0YpA-354" target="3T-uVdfU-VrU92vL0YpA-358">
          <mxGeometry relative="1" as="geometry">
            <mxPoint x="915" y="1920" as="sourcePoint" />
          </mxGeometry>
        </mxCell>
        <mxCell id="3T-uVdfU-VrU92vL0YpA-358" value="T" style="ellipse;whiteSpace=wrap;aspect=fixed;fontSize=18;fontStyle=1" vertex="1" parent="1">
          <mxGeometry x="890" y="1947.5" width="50" height="50" as="geometry" />
        </mxCell>
        <mxCell id="3T-uVdfU-VrU92vL0YpA-359" value="7" style="text;align=center;verticalAlign=middle;resizable=0;points=[];autosize=1;strokeColor=none;fillColor=none;fontSize=18;fontFamily=Verdana;" vertex="1" parent="1">
          <mxGeometry x="912.5" y="1907.5" width="30" height="40" as="geometry" />
        </mxCell>
        <mxCell id="3T-uVdfU-VrU92vL0YpA-361" value="" style="edgeStyle=orthogonalEdgeStyle;rounded=0;orthogonalLoop=1;jettySize=auto;entryX=0.5;entryY=0;entryDx=0;entryDy=0;fontSize=18;" edge="1" parent="1" target="3T-uVdfU-VrU92vL0YpA-363">
          <mxGeometry relative="1" as="geometry">
            <mxPoint x="915" y="1997.5" as="sourcePoint" />
          </mxGeometry>
        </mxCell>
        <mxCell id="3T-uVdfU-VrU92vL0YpA-363" value="A" style="ellipse;whiteSpace=wrap;aspect=fixed;fontSize=18;fontStyle=1" vertex="1" parent="1">
          <mxGeometry x="890" y="2027.5" width="50" height="50" as="geometry" />
        </mxCell>
        <mxCell id="3T-uVdfU-VrU92vL0YpA-364" value="4" style="text;align=center;verticalAlign=middle;resizable=0;points=[];autosize=1;strokeColor=none;fillColor=none;fontSize=18;" vertex="1" parent="1">
          <mxGeometry x="910" y="1987.5" width="30" height="40" as="geometry" />
        </mxCell>
        <mxCell id="3T-uVdfU-VrU92vL0YpA-365" value="" style="edgeStyle=orthogonalEdgeStyle;rounded=0;orthogonalLoop=1;jettySize=auto;entryX=0.5;entryY=0;entryDx=0;entryDy=0;fontSize=18;" edge="1" parent="1" target="3T-uVdfU-VrU92vL0YpA-366">
          <mxGeometry relative="1" as="geometry">
            <mxPoint x="915" y="2077.5" as="sourcePoint" />
          </mxGeometry>
        </mxCell>
        <mxCell id="3T-uVdfU-VrU92vL0YpA-371" value="" style="edgeStyle=orthogonalEdgeStyle;rounded=0;orthogonalLoop=1;jettySize=auto;entryX=0.5;entryY=0;entryDx=0;entryDy=0;fontSize=18;" edge="1" parent="1" source="3T-uVdfU-VrU92vL0YpA-366" target="3T-uVdfU-VrU92vL0YpA-368">
          <mxGeometry relative="1" as="geometry">
            <Array as="points">
              <mxPoint x="915" y="2170" />
              <mxPoint x="713" y="2170" />
              <mxPoint x="713" y="2230" />
            </Array>
          </mxGeometry>
        </mxCell>
        <mxCell id="3T-uVdfU-VrU92vL0YpA-366" value="B" style="ellipse;whiteSpace=wrap;aspect=fixed;fontSize=18;fontStyle=1" vertex="1" parent="1">
          <mxGeometry x="890" y="2107.5" width="50" height="50" as="geometry" />
        </mxCell>
        <mxCell id="3T-uVdfU-VrU92vL0YpA-367" value="2" style="text;align=center;verticalAlign=middle;resizable=0;points=[];autosize=1;strokeColor=none;fillColor=none;fontSize=18;" vertex="1" parent="1">
          <mxGeometry x="915" y="2072.5" width="30" height="40" as="geometry" />
        </mxCell>
        <mxCell id="3T-uVdfU-VrU92vL0YpA-368" value="F" style="ellipse;whiteSpace=wrap;aspect=fixed;fontSize=18;fontStyle=1" vertex="1" parent="1">
          <mxGeometry x="687.5" y="2230" width="50" height="50" as="geometry" />
        </mxCell>
        <mxCell id="3T-uVdfU-VrU92vL0YpA-376" value="15" style="text;align=center;verticalAlign=middle;resizable=0;points=[];autosize=1;strokeColor=none;fillColor=none;fontSize=18;" vertex="1" parent="1">
          <mxGeometry x="702.5" y="2130" width="40" height="40" as="geometry" />
        </mxCell>
        <mxCell id="3T-uVdfU-VrU92vL0YpA-377" value="" style="edgeStyle=orthogonalEdgeStyle;rounded=0;orthogonalLoop=1;jettySize=auto;entryX=0.5;entryY=0;entryDx=0;entryDy=0;fontFamily=Verdana;fontSize=18;exitX=0.5;exitY=1;exitDx=0;exitDy=0;" edge="1" parent="1" target="3T-uVdfU-VrU92vL0YpA-378">
          <mxGeometry relative="1" as="geometry">
            <mxPoint x="265" y="1445" as="sourcePoint" />
          </mxGeometry>
        </mxCell>
        <mxCell id="3T-uVdfU-VrU92vL0YpA-378" value="H" style="ellipse;whiteSpace=wrap;aspect=fixed;fontSize=18;fontStyle=1" vertex="1" parent="1">
          <mxGeometry x="240" y="1482.5" width="50" height="50" as="geometry" />
        </mxCell>
        <mxCell id="3T-uVdfU-VrU92vL0YpA-379" value="11" style="text;align=center;verticalAlign=middle;resizable=0;points=[];autosize=1;strokeColor=none;fillColor=none;fontSize=18;fontFamily=Verdana;" vertex="1" parent="1">
          <mxGeometry x="255" y="1442.5" width="50" height="40" as="geometry" />
        </mxCell>
        <mxCell id="3T-uVdfU-VrU92vL0YpA-380" value="U" style="ellipse;whiteSpace=wrap;aspect=fixed;fontSize=18;fontStyle=1" vertex="1" parent="1">
          <mxGeometry x="240" y="1552.5" width="50" height="50" as="geometry" />
        </mxCell>
        <mxCell id="3T-uVdfU-VrU92vL0YpA-381" value="" style="edgeStyle=orthogonalEdgeStyle;rounded=0;orthogonalLoop=1;jettySize=auto;entryX=0.5;entryY=0;entryDx=0;entryDy=0;fontFamily=Verdana;fontSize=18;exitX=0.5;exitY=1;exitDx=0;exitDy=0;" edge="1" parent="1" source="3T-uVdfU-VrU92vL0YpA-378" target="3T-uVdfU-VrU92vL0YpA-380">
          <mxGeometry relative="1" as="geometry">
            <mxPoint x="265" y="1532.5" as="sourcePoint" />
            <mxPoint x="265" y="1562.5" as="targetPoint" />
          </mxGeometry>
        </mxCell>
        <mxCell id="3T-uVdfU-VrU92vL0YpA-382" value="9" style="text;align=center;verticalAlign=middle;resizable=0;points=[];autosize=1;strokeColor=none;fillColor=none;fontSize=18;fontFamily=Verdana;" vertex="1" parent="1">
          <mxGeometry x="262.5" y="1517.5" width="30" height="40" as="geometry" />
        </mxCell>
        <mxCell id="3T-uVdfU-VrU92vL0YpA-383" value="" style="edgeStyle=orthogonalEdgeStyle;rounded=0;orthogonalLoop=1;jettySize=auto;entryX=0.5;entryY=0;entryDx=0;entryDy=0;fontFamily=Verdana;fontSize=18;exitX=0.5;exitY=1;exitDx=0;exitDy=0;" edge="1" parent="1" source="3T-uVdfU-VrU92vL0YpA-380" target="3T-uVdfU-VrU92vL0YpA-384">
          <mxGeometry relative="1" as="geometry">
            <mxPoint x="265" y="1605" as="sourcePoint" />
          </mxGeometry>
        </mxCell>
        <mxCell id="3T-uVdfU-VrU92vL0YpA-384" value="T" style="ellipse;whiteSpace=wrap;aspect=fixed;fontSize=18;fontStyle=1" vertex="1" parent="1">
          <mxGeometry x="240" y="1632.5" width="50" height="50" as="geometry" />
        </mxCell>
        <mxCell id="3T-uVdfU-VrU92vL0YpA-385" value="7" style="text;align=center;verticalAlign=middle;resizable=0;points=[];autosize=1;strokeColor=none;fillColor=none;fontSize=18;fontFamily=Verdana;" vertex="1" parent="1">
          <mxGeometry x="262.5" y="1592.5" width="30" height="40" as="geometry" />
        </mxCell>
        <mxCell id="3T-uVdfU-VrU92vL0YpA-386" value="" style="edgeStyle=orthogonalEdgeStyle;rounded=0;orthogonalLoop=1;jettySize=auto;entryX=0.5;entryY=0;entryDx=0;entryDy=0;fontSize=18;" edge="1" parent="1" target="3T-uVdfU-VrU92vL0YpA-387">
          <mxGeometry relative="1" as="geometry">
            <mxPoint x="265" y="1682.5" as="sourcePoint" />
          </mxGeometry>
        </mxCell>
        <mxCell id="3T-uVdfU-VrU92vL0YpA-406" value="" style="edgeStyle=orthogonalEdgeStyle;rounded=0;orthogonalLoop=1;jettySize=auto;entryX=0.5;entryY=0;entryDx=0;entryDy=0;fontSize=18;" edge="1" parent="1" source="3T-uVdfU-VrU92vL0YpA-387" target="3T-uVdfU-VrU92vL0YpA-401">
          <mxGeometry relative="1" as="geometry">
            <Array as="points">
              <mxPoint x="265" y="2500" />
              <mxPoint x="375" y="2500" />
            </Array>
          </mxGeometry>
        </mxCell>
        <mxCell id="3T-uVdfU-VrU92vL0YpA-387" value="A" style="ellipse;whiteSpace=wrap;aspect=fixed;fontSize=18;fontStyle=1" vertex="1" parent="1">
          <mxGeometry x="240" y="1712.5" width="50" height="50" as="geometry" />
        </mxCell>
        <mxCell id="3T-uVdfU-VrU92vL0YpA-388" value="4" style="text;align=center;verticalAlign=middle;resizable=0;points=[];autosize=1;strokeColor=none;fillColor=none;fontSize=18;" vertex="1" parent="1">
          <mxGeometry x="260" y="1672.5" width="30" height="40" as="geometry" />
        </mxCell>
        <mxCell id="3T-uVdfU-VrU92vL0YpA-389" value="" style="edgeStyle=orthogonalEdgeStyle;rounded=0;orthogonalLoop=1;jettySize=auto;entryX=0.5;entryY=0;entryDx=0;entryDy=0;fontFamily=Verdana;fontSize=18;exitX=0.5;exitY=1;exitDx=0;exitDy=0;" edge="1" parent="1" target="3T-uVdfU-VrU92vL0YpA-390">
          <mxGeometry relative="1" as="geometry">
            <mxPoint x="710" y="2282.5" as="sourcePoint" />
          </mxGeometry>
        </mxCell>
        <mxCell id="3T-uVdfU-VrU92vL0YpA-390" value="H" style="ellipse;whiteSpace=wrap;aspect=fixed;fontSize=18;fontStyle=1" vertex="1" parent="1">
          <mxGeometry x="685" y="2320" width="50" height="50" as="geometry" />
        </mxCell>
        <mxCell id="3T-uVdfU-VrU92vL0YpA-391" value="11" style="text;align=center;verticalAlign=middle;resizable=0;points=[];autosize=1;strokeColor=none;fillColor=none;fontSize=18;fontFamily=Verdana;" vertex="1" parent="1">
          <mxGeometry x="700" y="2280" width="50" height="40" as="geometry" />
        </mxCell>
        <mxCell id="3T-uVdfU-VrU92vL0YpA-392" value="U" style="ellipse;whiteSpace=wrap;aspect=fixed;fontSize=18;fontStyle=1" vertex="1" parent="1">
          <mxGeometry x="685" y="2390" width="50" height="50" as="geometry" />
        </mxCell>
        <mxCell id="3T-uVdfU-VrU92vL0YpA-393" value="" style="edgeStyle=orthogonalEdgeStyle;rounded=0;orthogonalLoop=1;jettySize=auto;entryX=0.5;entryY=0;entryDx=0;entryDy=0;fontFamily=Verdana;fontSize=18;exitX=0.5;exitY=1;exitDx=0;exitDy=0;" edge="1" parent="1" source="3T-uVdfU-VrU92vL0YpA-390" target="3T-uVdfU-VrU92vL0YpA-392">
          <mxGeometry relative="1" as="geometry">
            <mxPoint x="710" y="2370" as="sourcePoint" />
            <mxPoint x="710" y="2400" as="targetPoint" />
          </mxGeometry>
        </mxCell>
        <mxCell id="3T-uVdfU-VrU92vL0YpA-394" value="9" style="text;align=center;verticalAlign=middle;resizable=0;points=[];autosize=1;strokeColor=none;fillColor=none;fontSize=18;fontFamily=Verdana;" vertex="1" parent="1">
          <mxGeometry x="707.5" y="2355" width="30" height="40" as="geometry" />
        </mxCell>
        <mxCell id="3T-uVdfU-VrU92vL0YpA-395" value="" style="edgeStyle=orthogonalEdgeStyle;rounded=0;orthogonalLoop=1;jettySize=auto;entryX=0.5;entryY=0;entryDx=0;entryDy=0;fontFamily=Verdana;fontSize=18;exitX=0.5;exitY=1;exitDx=0;exitDy=0;" edge="1" parent="1" source="3T-uVdfU-VrU92vL0YpA-392" target="3T-uVdfU-VrU92vL0YpA-396">
          <mxGeometry relative="1" as="geometry">
            <mxPoint x="710" y="2442.5" as="sourcePoint" />
          </mxGeometry>
        </mxCell>
        <mxCell id="3T-uVdfU-VrU92vL0YpA-408" value="" style="edgeStyle=orthogonalEdgeStyle;rounded=0;orthogonalLoop=1;jettySize=auto;entryX=0.5;entryY=0;entryDx=0;entryDy=0;fontSize=18;" edge="1" parent="1" source="3T-uVdfU-VrU92vL0YpA-396" target="3T-uVdfU-VrU92vL0YpA-401">
          <mxGeometry relative="1" as="geometry">
            <mxPoint x="410" y="2470" as="targetPoint" />
            <Array as="points">
              <mxPoint x="375" y="2500" />
            </Array>
          </mxGeometry>
        </mxCell>
        <mxCell id="3T-uVdfU-VrU92vL0YpA-396" value="T" style="ellipse;whiteSpace=wrap;aspect=fixed;fontSize=18;fontStyle=1" vertex="1" parent="1">
          <mxGeometry x="685" y="2470" width="50" height="50" as="geometry" />
        </mxCell>
        <mxCell id="3T-uVdfU-VrU92vL0YpA-397" value="7" style="text;align=center;verticalAlign=middle;resizable=0;points=[];autosize=1;strokeColor=none;fillColor=none;fontSize=18;fontFamily=Verdana;" vertex="1" parent="1">
          <mxGeometry x="707.5" y="2430" width="30" height="40" as="geometry" />
        </mxCell>
        <mxCell id="3T-uVdfU-VrU92vL0YpA-401" value="A" style="ellipse;whiteSpace=wrap;aspect=fixed;fontSize=18;fontStyle=1" vertex="1" parent="1">
          <mxGeometry x="350" y="2540" width="50" height="50" as="geometry" />
        </mxCell>
        <mxCell id="3T-uVdfU-VrU92vL0YpA-407" value="" style="edgeStyle=orthogonalEdgeStyle;rounded=0;orthogonalLoop=1;jettySize=auto;entryX=0.5;entryY=0;entryDx=0;entryDy=0;fontSize=18;" edge="1" parent="1" source="3T-uVdfU-VrU92vL0YpA-402" target="3T-uVdfU-VrU92vL0YpA-401">
          <mxGeometry relative="1" as="geometry">
            <Array as="points">
              <mxPoint x="345" y="2500" />
              <mxPoint x="375" y="2500" />
            </Array>
          </mxGeometry>
        </mxCell>
        <mxCell id="3T-uVdfU-VrU92vL0YpA-402" value="Z" style="ellipse;whiteSpace=wrap;aspect=fixed;fontSize=18;fontStyle=1" vertex="1" parent="1">
          <mxGeometry x="320" y="1947.5" width="50" height="50" as="geometry" />
        </mxCell>
        <mxCell id="3T-uVdfU-VrU92vL0YpA-404" value="25" style="text;align=center;verticalAlign=middle;resizable=0;points=[];autosize=1;strokeColor=none;fillColor=none;fontSize=18;" vertex="1" parent="1">
          <mxGeometry x="345" y="1907.5" width="40" height="40" as="geometry" />
        </mxCell>
        <mxCell id="3T-uVdfU-VrU92vL0YpA-405" value="6" style="text;align=center;verticalAlign=middle;resizable=0;points=[];autosize=1;strokeColor=none;fillColor=none;fontSize=18;spacingRight=-1;" vertex="1" parent="1">
          <mxGeometry x="345" y="2460" width="30" height="40" as="geometry" />
        </mxCell>
        <mxCell id="3T-uVdfU-VrU92vL0YpA-413" value="H" style="ellipse;whiteSpace=wrap;aspect=fixed;fontSize=18;fontStyle=1" vertex="1" parent="1">
          <mxGeometry x="540" y="2640" width="50" height="50" as="geometry" />
        </mxCell>
        <mxCell id="3T-uVdfU-VrU92vL0YpA-417" value="14" style="text;align=center;verticalAlign=middle;resizable=0;points=[];autosize=1;strokeColor=none;fillColor=none;fontSize=18;" vertex="1" parent="1">
          <mxGeometry x="545" y="2570" width="40" height="40" as="geometry" />
        </mxCell>
        <mxCell id="3T-uVdfU-VrU92vL0YpA-420" value="H" style="ellipse;whiteSpace=wrap;aspect=fixed;fontSize=18;fontStyle=1" vertex="1" parent="1">
          <mxGeometry x="70" y="2750" width="50" height="50" as="geometry" />
        </mxCell>
        <mxCell id="3T-uVdfU-VrU92vL0YpA-421" value="" style="edgeStyle=orthogonalEdgeStyle;rounded=0;orthogonalLoop=1;jettySize=auto;fontFamily=Verdana;fontSize=18;" edge="1" parent="1" target="3T-uVdfU-VrU92vL0YpA-422">
          <mxGeometry relative="1" as="geometry">
            <mxPoint x="310" y="2800" as="sourcePoint" />
          </mxGeometry>
        </mxCell>
        <mxCell id="3T-uVdfU-VrU92vL0YpA-422" value="L" style="ellipse;whiteSpace=wrap;aspect=fixed;fontSize=18;fontStyle=1" vertex="1" parent="1">
          <mxGeometry x="285" y="2840" width="50" height="50" as="geometry" />
        </mxCell>
        <mxCell id="3T-uVdfU-VrU92vL0YpA-423" value="29" style="text;align=center;verticalAlign=middle;resizable=0;points=[];autosize=1;strokeColor=none;fillColor=none;fontSize=18;fontFamily=Verdana;" vertex="1" parent="1">
          <mxGeometry x="300" y="2805" width="50" height="40" as="geometry" />
        </mxCell>
        <mxCell id="3T-uVdfU-VrU92vL0YpA-424" value="" style="edgeStyle=orthogonalEdgeStyle;rounded=0;orthogonalLoop=1;jettySize=auto;entryX=0.5;entryY=0;entryDx=0;entryDy=0;fontFamily=Verdana;fontSize=18;" edge="1" parent="1" target="3T-uVdfU-VrU92vL0YpA-426">
          <mxGeometry relative="1" as="geometry">
            <mxPoint x="310" y="2890" as="sourcePoint" />
          </mxGeometry>
        </mxCell>
        <mxCell id="3T-uVdfU-VrU92vL0YpA-425" value="" style="edgeStyle=orthogonalEdgeStyle;rounded=0;orthogonalLoop=1;jettySize=auto;entryX=0.5;entryY=0;entryDx=0;entryDy=0;fontFamily=Verdana;fontSize=18;" edge="1" parent="1" source="3T-uVdfU-VrU92vL0YpA-426" target="3T-uVdfU-VrU92vL0YpA-427">
          <mxGeometry relative="1" as="geometry" />
        </mxCell>
        <mxCell id="3T-uVdfU-VrU92vL0YpA-426" value="V" style="ellipse;whiteSpace=wrap;aspect=fixed;fontSize=18;fontStyle=1" vertex="1" parent="1">
          <mxGeometry x="285" y="2915" width="50" height="50" as="geometry" />
        </mxCell>
        <mxCell id="3T-uVdfU-VrU92vL0YpA-427" value="H" style="ellipse;whiteSpace=wrap;aspect=fixed;fontSize=18;fontStyle=1" vertex="1" parent="1">
          <mxGeometry x="285" y="2990" width="50" height="50" as="geometry" />
        </mxCell>
        <mxCell id="3T-uVdfU-VrU92vL0YpA-428" value="12" style="text;align=center;verticalAlign=middle;resizable=0;points=[];autosize=1;strokeColor=none;fillColor=none;fontSize=18;fontFamily=Verdana;" vertex="1" parent="1">
          <mxGeometry x="300" y="2960" width="50" height="40" as="geometry" />
        </mxCell>
        <mxCell id="3T-uVdfU-VrU92vL0YpA-429" value="16" style="text;align=center;verticalAlign=middle;resizable=0;points=[];autosize=1;strokeColor=none;fillColor=none;fontSize=18;fontFamily=Verdana;" vertex="1" parent="1">
          <mxGeometry x="300" y="2880" width="50" height="40" as="geometry" />
        </mxCell>
        <mxCell id="3T-uVdfU-VrU92vL0YpA-430" value="U" style="ellipse;whiteSpace=wrap;aspect=fixed;fontSize=18;fontStyle=1" vertex="1" parent="1">
          <mxGeometry x="285" y="3065" width="50" height="50" as="geometry" />
        </mxCell>
        <mxCell id="3T-uVdfU-VrU92vL0YpA-431" value="" style="edgeStyle=orthogonalEdgeStyle;rounded=0;orthogonalLoop=1;jettySize=auto;entryX=0.5;entryY=0;entryDx=0;entryDy=0;fontFamily=Verdana;fontSize=18;exitX=0.5;exitY=1;exitDx=0;exitDy=0;" edge="1" parent="1" source="3T-uVdfU-VrU92vL0YpA-427" target="3T-uVdfU-VrU92vL0YpA-430">
          <mxGeometry relative="1" as="geometry">
            <mxPoint x="310" y="3050" as="sourcePoint" />
            <mxPoint x="310" y="3080" as="targetPoint" />
          </mxGeometry>
        </mxCell>
        <mxCell id="3T-uVdfU-VrU92vL0YpA-432" value="9" style="text;align=center;verticalAlign=middle;resizable=0;points=[];autosize=1;strokeColor=none;fillColor=none;fontSize=18;fontFamily=Verdana;" vertex="1" parent="1">
          <mxGeometry x="305" y="3030" width="30" height="40" as="geometry" />
        </mxCell>
        <mxCell id="3T-uVdfU-VrU92vL0YpA-433" value="" style="edgeStyle=orthogonalEdgeStyle;rounded=0;orthogonalLoop=1;jettySize=auto;entryX=0.5;entryY=0;entryDx=0;entryDy=0;fontFamily=Verdana;fontSize=18;" edge="1" parent="1" target="3T-uVdfU-VrU92vL0YpA-434">
          <mxGeometry relative="1" as="geometry">
            <mxPoint x="310" y="3115" as="sourcePoint" />
          </mxGeometry>
        </mxCell>
        <mxCell id="3T-uVdfU-VrU92vL0YpA-434" value="T" style="ellipse;whiteSpace=wrap;aspect=fixed;fontSize=18;fontStyle=1" vertex="1" parent="1">
          <mxGeometry x="285" y="3140" width="50" height="50" as="geometry" />
        </mxCell>
        <mxCell id="3T-uVdfU-VrU92vL0YpA-435" value="7" style="text;align=center;verticalAlign=middle;resizable=0;points=[];autosize=1;strokeColor=none;fillColor=none;fontSize=18;fontFamily=Verdana;" vertex="1" parent="1">
          <mxGeometry x="310" y="3110" width="30" height="40" as="geometry" />
        </mxCell>
        <mxCell id="3T-uVdfU-VrU92vL0YpA-470" value="" style="edgeStyle=orthogonalEdgeStyle;rounded=0;orthogonalLoop=1;jettySize=auto;entryX=0.5;entryY=0;entryDx=0;entryDy=0;fontSize=18;" edge="1" parent="1" source="3T-uVdfU-VrU92vL0YpA-436" target="3T-uVdfU-VrU92vL0YpA-468">
          <mxGeometry relative="1" as="geometry">
            <Array as="points">
              <mxPoint x="310" y="3370" />
              <mxPoint x="395" y="3370" />
            </Array>
          </mxGeometry>
        </mxCell>
        <mxCell id="3T-uVdfU-VrU92vL0YpA-436" value="A" style="ellipse;whiteSpace=wrap;aspect=fixed;fontSize=18;fontStyle=1" vertex="1" parent="1">
          <mxGeometry x="285" y="3215" width="50" height="50" as="geometry" />
        </mxCell>
        <mxCell id="3T-uVdfU-VrU92vL0YpA-437" value="" style="edgeStyle=orthogonalEdgeStyle;rounded=0;orthogonalLoop=1;jettySize=auto;entryX=0.5;entryY=0;entryDx=0;entryDy=0;fontFamily=Verdana;fontSize=18;exitX=0.5;exitY=1;exitDx=0;exitDy=0;" edge="1" parent="1" source="3T-uVdfU-VrU92vL0YpA-434" target="3T-uVdfU-VrU92vL0YpA-436">
          <mxGeometry relative="1" as="geometry">
            <mxPoint x="310" y="3200" as="sourcePoint" />
            <mxPoint x="310" y="3230" as="targetPoint" />
          </mxGeometry>
        </mxCell>
        <mxCell id="3T-uVdfU-VrU92vL0YpA-438" value="4" style="text;align=center;verticalAlign=middle;resizable=0;points=[];autosize=1;strokeColor=none;fillColor=none;fontSize=18;fontFamily=Verdana;" vertex="1" parent="1">
          <mxGeometry x="305" y="3180" width="30" height="40" as="geometry" />
        </mxCell>
        <mxCell id="3T-uVdfU-VrU92vL0YpA-439" value="" style="edgeStyle=orthogonalEdgeStyle;rounded=0;orthogonalLoop=1;jettySize=auto;fontFamily=Verdana;fontSize=18;" edge="1" parent="1" target="3T-uVdfU-VrU92vL0YpA-440">
          <mxGeometry relative="1" as="geometry">
            <mxPoint x="485" y="2800" as="sourcePoint" />
          </mxGeometry>
        </mxCell>
        <mxCell id="3T-uVdfU-VrU92vL0YpA-440" value="D" style="ellipse;whiteSpace=wrap;aspect=fixed;fontSize=18;fontStyle=1" vertex="1" parent="1">
          <mxGeometry x="460" y="2840" width="50" height="50" as="geometry" />
        </mxCell>
        <mxCell id="3T-uVdfU-VrU92vL0YpA-441" value="30" style="text;align=center;verticalAlign=middle;resizable=0;points=[];autosize=1;strokeColor=none;fillColor=none;fontSize=18;fontFamily=Verdana;" vertex="1" parent="1">
          <mxGeometry x="475" y="2805" width="50" height="40" as="geometry" />
        </mxCell>
        <mxCell id="3T-uVdfU-VrU92vL0YpA-442" value="" style="edgeStyle=orthogonalEdgeStyle;rounded=0;orthogonalLoop=1;jettySize=auto;entryX=0.5;entryY=0;entryDx=0;entryDy=0;fontFamily=Verdana;fontSize=18;" edge="1" parent="1" target="3T-uVdfU-VrU92vL0YpA-443">
          <mxGeometry relative="1" as="geometry">
            <mxPoint x="485" y="2890" as="sourcePoint" />
          </mxGeometry>
        </mxCell>
        <mxCell id="3T-uVdfU-VrU92vL0YpA-443" value="I" style="ellipse;whiteSpace=wrap;aspect=fixed;fontSize=18;fontStyle=1" vertex="1" parent="1">
          <mxGeometry x="460" y="2915" width="50" height="50" as="geometry" />
        </mxCell>
        <mxCell id="3T-uVdfU-VrU92vL0YpA-444" value="23" style="text;align=center;verticalAlign=middle;resizable=0;points=[];autosize=1;strokeColor=none;fillColor=none;fontSize=18;fontFamily=Verdana;" vertex="1" parent="1">
          <mxGeometry x="475" y="2880" width="50" height="40" as="geometry" />
        </mxCell>
        <mxCell id="3T-uVdfU-VrU92vL0YpA-445" value="" style="edgeStyle=orthogonalEdgeStyle;rounded=0;orthogonalLoop=1;jettySize=auto;fontFamily=Verdana;fontSize=18;" edge="1" parent="1" target="3T-uVdfU-VrU92vL0YpA-446">
          <mxGeometry relative="1" as="geometry">
            <mxPoint x="565" y="2800" as="sourcePoint" />
          </mxGeometry>
        </mxCell>
        <mxCell id="3T-uVdfU-VrU92vL0YpA-446" value="D" style="ellipse;whiteSpace=wrap;aspect=fixed;fontSize=18;fontStyle=1" vertex="1" parent="1">
          <mxGeometry x="540" y="2840" width="50" height="50" as="geometry" />
        </mxCell>
        <mxCell id="3T-uVdfU-VrU92vL0YpA-447" value="ошибка" style="text;align=center;verticalAlign=middle;resizable=0;points=[];autosize=1;strokeColor=none;fillColor=none;fontSize=18;fontFamily=Verdana;" vertex="1" parent="1">
          <mxGeometry x="520" y="2800" width="90" height="40" as="geometry" />
        </mxCell>
        <mxCell id="3T-uVdfU-VrU92vL0YpA-448" value="" style="edgeStyle=orthogonalEdgeStyle;rounded=0;orthogonalLoop=1;jettySize=auto;entryX=0.5;entryY=0;entryDx=0;entryDy=0;fontFamily=Verdana;fontSize=18;" edge="1" parent="1" target="3T-uVdfU-VrU92vL0YpA-449">
          <mxGeometry relative="1" as="geometry">
            <mxPoint x="565" y="2890" as="sourcePoint" />
          </mxGeometry>
        </mxCell>
        <mxCell id="3T-uVdfU-VrU92vL0YpA-464" value="" style="edgeStyle=orthogonalEdgeStyle;rounded=0;orthogonalLoop=1;jettySize=auto;fontSize=18;" edge="1" parent="1" source="3T-uVdfU-VrU92vL0YpA-449" target="3T-uVdfU-VrU92vL0YpA-452">
          <mxGeometry relative="1" as="geometry" />
        </mxCell>
        <mxCell id="3T-uVdfU-VrU92vL0YpA-449" value="I" style="ellipse;whiteSpace=wrap;aspect=fixed;fontSize=18;fontStyle=1" vertex="1" parent="1">
          <mxGeometry x="540" y="2995" width="50" height="50" as="geometry" />
        </mxCell>
        <mxCell id="3T-uVdfU-VrU92vL0YpA-450" value="24" style="text;align=center;verticalAlign=middle;resizable=0;points=[];autosize=1;strokeColor=none;fillColor=none;fontSize=18;fontFamily=Verdana;" vertex="1" parent="1">
          <mxGeometry x="510" y="2950" width="50" height="40" as="geometry" />
        </mxCell>
        <mxCell id="3T-uVdfU-VrU92vL0YpA-451" value="" style="endArrow=classic;rounded=0;entryX=0.5;entryY=0;entryDx=0;entryDy=0;exitX=0.5;exitY=1;exitDx=0;exitDy=0;fontSize=18;" edge="1" parent="1" source="3T-uVdfU-VrU92vL0YpA-443" target="3T-uVdfU-VrU92vL0YpA-449">
          <mxGeometry width="50" height="50" relative="1" as="geometry">
            <mxPoint x="470" y="3070" as="sourcePoint" />
            <mxPoint x="520" y="3020" as="targetPoint" />
          </mxGeometry>
        </mxCell>
        <mxCell id="3T-uVdfU-VrU92vL0YpA-452" value="R" style="ellipse;whiteSpace=wrap;aspect=fixed;fontSize=18;fontStyle=1" vertex="1" parent="1">
          <mxGeometry x="540" y="3065" width="50" height="50" as="geometry" />
        </mxCell>
        <mxCell id="3T-uVdfU-VrU92vL0YpA-453" value="" style="edgeStyle=orthogonalEdgeStyle;rounded=0;orthogonalLoop=1;jettySize=auto;entryX=0.5;entryY=0;entryDx=0;entryDy=0;fontFamily=Verdana;fontSize=18;exitX=0.5;exitY=1;exitDx=0;exitDy=0;" edge="1" parent="1" source="3T-uVdfU-VrU92vL0YpA-452" target="3T-uVdfU-VrU92vL0YpA-454">
          <mxGeometry relative="1" as="geometry">
            <mxPoint x="565" y="3117.5" as="sourcePoint" />
          </mxGeometry>
        </mxCell>
        <mxCell id="3T-uVdfU-VrU92vL0YpA-454" value="H" style="ellipse;whiteSpace=wrap;aspect=fixed;fontSize=18;fontStyle=1" vertex="1" parent="1">
          <mxGeometry x="540" y="3152.5" width="50" height="50" as="geometry" />
        </mxCell>
        <mxCell id="3T-uVdfU-VrU92vL0YpA-455" value="13" style="text;align=center;verticalAlign=middle;resizable=0;points=[];autosize=1;strokeColor=none;fillColor=none;fontSize=18;fontFamily=Verdana;" vertex="1" parent="1">
          <mxGeometry x="555" y="3112.5" width="50" height="40" as="geometry" />
        </mxCell>
        <mxCell id="3T-uVdfU-VrU92vL0YpA-456" value="U" style="ellipse;whiteSpace=wrap;aspect=fixed;fontSize=18;fontStyle=1" vertex="1" parent="1">
          <mxGeometry x="540" y="3222.5" width="50" height="50" as="geometry" />
        </mxCell>
        <mxCell id="3T-uVdfU-VrU92vL0YpA-457" value="" style="edgeStyle=orthogonalEdgeStyle;rounded=0;orthogonalLoop=1;jettySize=auto;entryX=0.5;entryY=0;entryDx=0;entryDy=0;fontFamily=Verdana;fontSize=18;exitX=0.5;exitY=1;exitDx=0;exitDy=0;" edge="1" parent="1" source="3T-uVdfU-VrU92vL0YpA-454" target="3T-uVdfU-VrU92vL0YpA-456">
          <mxGeometry relative="1" as="geometry">
            <mxPoint x="565" y="3202.5" as="sourcePoint" />
            <mxPoint x="565" y="3232.5" as="targetPoint" />
          </mxGeometry>
        </mxCell>
        <mxCell id="3T-uVdfU-VrU92vL0YpA-458" value="9" style="text;align=center;verticalAlign=middle;resizable=0;points=[];autosize=1;strokeColor=none;fillColor=none;fontSize=18;fontFamily=Verdana;" vertex="1" parent="1">
          <mxGeometry x="562.5" y="3187.5" width="30" height="40" as="geometry" />
        </mxCell>
        <mxCell id="3T-uVdfU-VrU92vL0YpA-459" value="" style="edgeStyle=orthogonalEdgeStyle;rounded=0;orthogonalLoop=1;jettySize=auto;entryX=0.5;entryY=0;entryDx=0;entryDy=0;fontFamily=Verdana;fontSize=18;exitX=0.5;exitY=1;exitDx=0;exitDy=0;" edge="1" parent="1" source="3T-uVdfU-VrU92vL0YpA-456" target="3T-uVdfU-VrU92vL0YpA-460">
          <mxGeometry relative="1" as="geometry">
            <mxPoint x="565" y="3275" as="sourcePoint" />
          </mxGeometry>
        </mxCell>
        <mxCell id="3T-uVdfU-VrU92vL0YpA-471" value="" style="edgeStyle=orthogonalEdgeStyle;rounded=0;orthogonalLoop=1;jettySize=auto;entryX=0.5;entryY=0;entryDx=0;entryDy=0;fontSize=18;" edge="1" parent="1" source="3T-uVdfU-VrU92vL0YpA-460" target="3T-uVdfU-VrU92vL0YpA-468">
          <mxGeometry relative="1" as="geometry">
            <Array as="points">
              <mxPoint x="565" y="3370" />
              <mxPoint x="395" y="3370" />
            </Array>
          </mxGeometry>
        </mxCell>
        <mxCell id="3T-uVdfU-VrU92vL0YpA-460" value="T" style="ellipse;whiteSpace=wrap;aspect=fixed;fontSize=18;fontStyle=1" vertex="1" parent="1">
          <mxGeometry x="540" y="3302.5" width="50" height="50" as="geometry" />
        </mxCell>
        <mxCell id="3T-uVdfU-VrU92vL0YpA-461" value="7" style="text;align=center;verticalAlign=middle;resizable=0;points=[];autosize=1;strokeColor=none;fillColor=none;fontSize=18;fontFamily=Verdana;" vertex="1" parent="1">
          <mxGeometry x="562.5" y="3262.5" width="30" height="40" as="geometry" />
        </mxCell>
        <mxCell id="3T-uVdfU-VrU92vL0YpA-463" value="6" style="text;align=center;verticalAlign=middle;resizable=0;points=[];autosize=1;strokeColor=none;fillColor=none;fontSize=18;" vertex="1" parent="1">
          <mxGeometry x="390" y="3360" width="30" height="40" as="geometry" />
        </mxCell>
        <mxCell id="3T-uVdfU-VrU92vL0YpA-465" value="19" style="text;align=center;verticalAlign=middle;resizable=0;points=[];autosize=1;strokeColor=none;fillColor=none;fontSize=18;fontFamily=Verdana;" vertex="1" parent="1">
          <mxGeometry x="562.5" y="3030" width="50" height="40" as="geometry" />
        </mxCell>
        <mxCell id="3T-uVdfU-VrU92vL0YpA-469" value="" style="edgeStyle=orthogonalEdgeStyle;rounded=0;orthogonalLoop=1;jettySize=auto;entryX=0.5;entryY=0;entryDx=0;entryDy=0;fontSize=18;" edge="1" parent="1" source="3T-uVdfU-VrU92vL0YpA-466" target="3T-uVdfU-VrU92vL0YpA-468">
          <mxGeometry relative="1" as="geometry" />
        </mxCell>
        <mxCell id="3T-uVdfU-VrU92vL0YpA-466" value="Z" style="ellipse;whiteSpace=wrap;aspect=fixed;fontSize=18;fontStyle=1" vertex="1" parent="1">
          <mxGeometry x="370" y="3215" width="50" height="50" as="geometry" />
        </mxCell>
        <mxCell id="3T-uVdfU-VrU92vL0YpA-477" value="" style="edgeStyle=orthogonalEdgeStyle;rounded=0;orthogonalLoop=1;jettySize=auto;entryX=0.5;entryY=0;entryDx=0;entryDy=0;fontSize=18;" edge="1" parent="1" source="3T-uVdfU-VrU92vL0YpA-468" target="3T-uVdfU-VrU92vL0YpA-474">
          <mxGeometry relative="1" as="geometry" />
        </mxCell>
        <mxCell id="3T-uVdfU-VrU92vL0YpA-468" value="A" style="ellipse;whiteSpace=wrap;aspect=fixed;fontSize=18;fontStyle=1" vertex="1" parent="1">
          <mxGeometry x="370" y="3400" width="50" height="50" as="geometry" />
        </mxCell>
        <mxCell id="3T-uVdfU-VrU92vL0YpA-472" value="25" style="text;align=center;verticalAlign=middle;resizable=0;points=[];autosize=1;strokeColor=none;fillColor=none;fontSize=18;" vertex="1" parent="1">
          <mxGeometry x="390" y="3175" width="40" height="40" as="geometry" />
        </mxCell>
        <mxCell id="3T-uVdfU-VrU92vL0YpA-475" value="" style="edgeStyle=orthogonalEdgeStyle;rounded=0;orthogonalLoop=1;jettySize=auto;fontSize=18;" edge="1" parent="1" source="3T-uVdfU-VrU92vL0YpA-473" target="3T-uVdfU-VrU92vL0YpA-474">
          <mxGeometry relative="1" as="geometry">
            <Array as="points">
              <mxPoint x="238" y="3480" />
              <mxPoint x="395" y="3480" />
            </Array>
          </mxGeometry>
        </mxCell>
        <mxCell id="3T-uVdfU-VrU92vL0YpA-473" value="(" style="ellipse;whiteSpace=wrap;aspect=fixed;fontSize=18;fontStyle=1" vertex="1" parent="1">
          <mxGeometry x="212.5" y="2750" width="50" height="50" as="geometry" />
        </mxCell>
        <mxCell id="3T-uVdfU-VrU92vL0YpA-474" value="H" style="ellipse;whiteSpace=wrap;aspect=fixed;fontSize=18;fontStyle=1" vertex="1" parent="1">
          <mxGeometry x="370" y="3520" width="50" height="50" as="geometry" />
        </mxCell>
        <mxCell id="3T-uVdfU-VrU92vL0YpA-478" value="14" style="text;align=center;verticalAlign=middle;resizable=0;points=[];autosize=1;strokeColor=none;fillColor=none;fontSize=18;" vertex="1" parent="1">
          <mxGeometry x="390" y="3480" width="40" height="40" as="geometry" />
        </mxCell>
        <mxCell id="3T-uVdfU-VrU92vL0YpA-479" value="" style="edgeStyle=orthogonalEdgeStyle;rounded=0;orthogonalLoop=1;jettySize=auto;entryX=0.5;entryY=0;entryDx=0;entryDy=0;fontSize=18;" edge="1" parent="1" target="3T-uVdfU-VrU92vL0YpA-480">
          <mxGeometry relative="1" as="geometry">
            <mxPoint x="395" y="3570" as="sourcePoint" />
          </mxGeometry>
        </mxCell>
        <mxCell id="3T-uVdfU-VrU92vL0YpA-492" value="" style="edgeStyle=orthogonalEdgeStyle;rounded=0;orthogonalLoop=1;jettySize=auto;entryX=0.5;entryY=0;entryDx=0;entryDy=0;fontSize=18;" edge="1" parent="1" source="3T-uVdfU-VrU92vL0YpA-480" target="3T-uVdfU-VrU92vL0YpA-491">
          <mxGeometry relative="1" as="geometry">
            <Array as="points">
              <mxPoint x="295" y="3640" />
            </Array>
          </mxGeometry>
        </mxCell>
        <mxCell id="3T-uVdfU-VrU92vL0YpA-480" value="U" style="ellipse;whiteSpace=wrap;aspect=fixed;fontSize=18;fontStyle=1" vertex="1" parent="1">
          <mxGeometry x="370" y="3610" width="50" height="50" as="geometry" />
        </mxCell>
        <mxCell id="3T-uVdfU-VrU92vL0YpA-481" value="9" style="text;align=center;verticalAlign=middle;resizable=0;points=[];autosize=1;strokeColor=none;fillColor=none;fontSize=18;" vertex="1" parent="1">
          <mxGeometry x="395" y="3570" width="30" height="40" as="geometry" />
        </mxCell>
        <mxCell id="3T-uVdfU-VrU92vL0YpA-482" value="U" style="ellipse;whiteSpace=wrap;aspect=fixed;fontSize=18;fontStyle=1" vertex="1" parent="1">
          <mxGeometry x="70" y="2820" width="50" height="50" as="geometry" />
        </mxCell>
        <mxCell id="3T-uVdfU-VrU92vL0YpA-483" value="" style="edgeStyle=orthogonalEdgeStyle;rounded=0;orthogonalLoop=1;jettySize=auto;entryX=0.5;entryY=0;entryDx=0;entryDy=0;fontFamily=Verdana;fontSize=18;exitX=0.5;exitY=1;exitDx=0;exitDy=0;" edge="1" parent="1" target="3T-uVdfU-VrU92vL0YpA-482">
          <mxGeometry relative="1" as="geometry">
            <mxPoint x="95" y="2800.5" as="sourcePoint" />
            <mxPoint x="95" y="2830" as="targetPoint" />
          </mxGeometry>
        </mxCell>
        <mxCell id="3T-uVdfU-VrU92vL0YpA-484" value="9" style="text;align=center;verticalAlign=middle;resizable=0;points=[];autosize=1;strokeColor=none;fillColor=none;fontSize=18;fontFamily=Verdana;" vertex="1" parent="1">
          <mxGeometry x="92.5" y="2785" width="30" height="40" as="geometry" />
        </mxCell>
        <mxCell id="3T-uVdfU-VrU92vL0YpA-485" value="" style="edgeStyle=orthogonalEdgeStyle;rounded=0;orthogonalLoop=1;jettySize=auto;entryX=0.5;entryY=0;entryDx=0;entryDy=0;fontFamily=Verdana;fontSize=18;exitX=0.5;exitY=1;exitDx=0;exitDy=0;" edge="1" parent="1" source="3T-uVdfU-VrU92vL0YpA-482" target="3T-uVdfU-VrU92vL0YpA-486">
          <mxGeometry relative="1" as="geometry">
            <mxPoint x="95" y="2872.5" as="sourcePoint" />
          </mxGeometry>
        </mxCell>
        <mxCell id="3T-uVdfU-VrU92vL0YpA-494" value="" style="edgeStyle=orthogonalEdgeStyle;rounded=0;orthogonalLoop=1;jettySize=auto;entryX=0.5;entryY=0;entryDx=0;entryDy=0;fontSize=18;" edge="1" parent="1" source="3T-uVdfU-VrU92vL0YpA-486" target="3T-uVdfU-VrU92vL0YpA-491">
          <mxGeometry relative="1" as="geometry">
            <Array as="points">
              <mxPoint x="95" y="3640" />
              <mxPoint x="295" y="3640" />
            </Array>
          </mxGeometry>
        </mxCell>
        <mxCell id="3T-uVdfU-VrU92vL0YpA-486" value="T" style="ellipse;whiteSpace=wrap;aspect=fixed;fontSize=18;fontStyle=1" vertex="1" parent="1">
          <mxGeometry x="70" y="2900" width="50" height="50" as="geometry" />
        </mxCell>
        <mxCell id="3T-uVdfU-VrU92vL0YpA-487" value="7" style="text;align=center;verticalAlign=middle;resizable=0;points=[];autosize=1;strokeColor=none;fillColor=none;fontSize=18;fontFamily=Verdana;" vertex="1" parent="1">
          <mxGeometry x="92.5" y="2860" width="30" height="40" as="geometry" />
        </mxCell>
        <mxCell id="3T-uVdfU-VrU92vL0YpA-488" value="" style="edgeStyle=orthogonalEdgeStyle;rounded=0;orthogonalLoop=1;jettySize=auto;entryX=0.5;entryY=0;entryDx=0;entryDy=0;fontSize=18;" edge="1" parent="1" target="3T-uVdfU-VrU92vL0YpA-489">
          <mxGeometry relative="1" as="geometry">
            <mxPoint x="165" y="2800" as="sourcePoint" />
          </mxGeometry>
        </mxCell>
        <mxCell id="3T-uVdfU-VrU92vL0YpA-493" value="" style="edgeStyle=orthogonalEdgeStyle;rounded=0;orthogonalLoop=1;jettySize=auto;entryX=0.5;entryY=0;entryDx=0;entryDy=0;fontSize=18;" edge="1" parent="1" source="3T-uVdfU-VrU92vL0YpA-489" target="3T-uVdfU-VrU92vL0YpA-491">
          <mxGeometry relative="1" as="geometry">
            <Array as="points">
              <mxPoint x="165" y="3640" />
              <mxPoint x="295" y="3640" />
            </Array>
          </mxGeometry>
        </mxCell>
        <mxCell id="3T-uVdfU-VrU92vL0YpA-489" value="M" style="ellipse;whiteSpace=wrap;aspect=fixed;fontSize=18;fontStyle=1" vertex="1" parent="1">
          <mxGeometry x="140" y="3215" width="50" height="50" as="geometry" />
        </mxCell>
        <mxCell id="3T-uVdfU-VrU92vL0YpA-490" value="28" style="text;align=center;verticalAlign=middle;resizable=0;points=[];autosize=1;strokeColor=none;fillColor=none;fontSize=18;" vertex="1" parent="1">
          <mxGeometry x="160" y="3175" width="40" height="40" as="geometry" />
        </mxCell>
        <mxCell id="3T-uVdfU-VrU92vL0YpA-491" value="T" style="ellipse;whiteSpace=wrap;aspect=fixed;fontSize=18;fontStyle=1" vertex="1" parent="1">
          <mxGeometry x="270" y="3700" width="50" height="50" as="geometry" />
        </mxCell>
        <mxCell id="3T-uVdfU-VrU92vL0YpA-495" value="8" style="text;align=center;verticalAlign=middle;resizable=0;points=[];autosize=1;strokeColor=none;fillColor=none;fontSize=18;" vertex="1" parent="1">
          <mxGeometry x="292.5" y="3640" width="30" height="40" as="geometry" />
        </mxCell>
        <mxCell id="3T-uVdfU-VrU92vL0YpA-496" value="" style="edgeStyle=orthogonalEdgeStyle;rounded=0;orthogonalLoop=1;jettySize=auto;fontFamily=Verdana;fontSize=18;" edge="1" parent="1" target="3T-uVdfU-VrU92vL0YpA-497">
          <mxGeometry relative="1" as="geometry">
            <mxPoint x="805" y="2800" as="sourcePoint" />
          </mxGeometry>
        </mxCell>
        <mxCell id="3T-uVdfU-VrU92vL0YpA-497" value="L" style="ellipse;whiteSpace=wrap;aspect=fixed;fontSize=18;fontStyle=1" vertex="1" parent="1">
          <mxGeometry x="780" y="2840" width="50" height="50" as="geometry" />
        </mxCell>
        <mxCell id="3T-uVdfU-VrU92vL0YpA-498" value="29" style="text;align=center;verticalAlign=middle;resizable=0;points=[];autosize=1;strokeColor=none;fillColor=none;fontSize=18;fontFamily=Verdana;" vertex="1" parent="1">
          <mxGeometry x="795" y="2805" width="50" height="40" as="geometry" />
        </mxCell>
        <mxCell id="3T-uVdfU-VrU92vL0YpA-499" value="" style="edgeStyle=orthogonalEdgeStyle;rounded=0;orthogonalLoop=1;jettySize=auto;entryX=0.5;entryY=0;entryDx=0;entryDy=0;fontFamily=Verdana;fontSize=18;" edge="1" parent="1" target="3T-uVdfU-VrU92vL0YpA-501">
          <mxGeometry relative="1" as="geometry">
            <mxPoint x="805" y="2890" as="sourcePoint" />
          </mxGeometry>
        </mxCell>
        <mxCell id="3T-uVdfU-VrU92vL0YpA-500" value="" style="edgeStyle=orthogonalEdgeStyle;rounded=0;orthogonalLoop=1;jettySize=auto;entryX=0.5;entryY=0;entryDx=0;entryDy=0;fontFamily=Verdana;fontSize=18;" edge="1" parent="1" source="3T-uVdfU-VrU92vL0YpA-501" target="3T-uVdfU-VrU92vL0YpA-502">
          <mxGeometry relative="1" as="geometry" />
        </mxCell>
        <mxCell id="3T-uVdfU-VrU92vL0YpA-501" value="V" style="ellipse;whiteSpace=wrap;aspect=fixed;fontSize=18;fontStyle=1" vertex="1" parent="1">
          <mxGeometry x="780" y="2915" width="50" height="50" as="geometry" />
        </mxCell>
        <mxCell id="3T-uVdfU-VrU92vL0YpA-502" value="H" style="ellipse;whiteSpace=wrap;aspect=fixed;fontSize=18;fontStyle=1" vertex="1" parent="1">
          <mxGeometry x="780" y="2990" width="50" height="50" as="geometry" />
        </mxCell>
        <mxCell id="3T-uVdfU-VrU92vL0YpA-503" value="12" style="text;align=center;verticalAlign=middle;resizable=0;points=[];autosize=1;strokeColor=none;fillColor=none;fontSize=18;fontFamily=Verdana;" vertex="1" parent="1">
          <mxGeometry x="795" y="2960" width="50" height="40" as="geometry" />
        </mxCell>
        <mxCell id="3T-uVdfU-VrU92vL0YpA-504" value="16" style="text;align=center;verticalAlign=middle;resizable=0;points=[];autosize=1;strokeColor=none;fillColor=none;fontSize=18;fontFamily=Verdana;" vertex="1" parent="1">
          <mxGeometry x="795" y="2880" width="50" height="40" as="geometry" />
        </mxCell>
        <mxCell id="3T-uVdfU-VrU92vL0YpA-522" value="" style="edgeStyle=orthogonalEdgeStyle;rounded=0;orthogonalLoop=1;jettySize=auto;entryX=0.5;entryY=0;entryDx=0;entryDy=0;fontSize=18;" edge="1" parent="1" source="3T-uVdfU-VrU92vL0YpA-505" target="3T-uVdfU-VrU92vL0YpA-520">
          <mxGeometry relative="1" as="geometry">
            <Array as="points">
              <mxPoint x="805" y="3130" />
              <mxPoint x="885" y="3130" />
            </Array>
          </mxGeometry>
        </mxCell>
        <mxCell id="3T-uVdfU-VrU92vL0YpA-505" value="U" style="ellipse;whiteSpace=wrap;aspect=fixed;fontSize=18;fontStyle=1" vertex="1" parent="1">
          <mxGeometry x="780" y="3065" width="50" height="50" as="geometry" />
        </mxCell>
        <mxCell id="3T-uVdfU-VrU92vL0YpA-506" value="" style="edgeStyle=orthogonalEdgeStyle;rounded=0;orthogonalLoop=1;jettySize=auto;entryX=0.5;entryY=0;entryDx=0;entryDy=0;fontFamily=Verdana;fontSize=18;exitX=0.5;exitY=1;exitDx=0;exitDy=0;" edge="1" parent="1" source="3T-uVdfU-VrU92vL0YpA-502" target="3T-uVdfU-VrU92vL0YpA-505">
          <mxGeometry relative="1" as="geometry">
            <mxPoint x="805" y="3050" as="sourcePoint" />
            <mxPoint x="805" y="3080" as="targetPoint" />
          </mxGeometry>
        </mxCell>
        <mxCell id="3T-uVdfU-VrU92vL0YpA-507" value="9" style="text;align=center;verticalAlign=middle;resizable=0;points=[];autosize=1;strokeColor=none;fillColor=none;fontSize=18;fontFamily=Verdana;" vertex="1" parent="1">
          <mxGeometry x="800" y="3030" width="30" height="40" as="geometry" />
        </mxCell>
        <mxCell id="3T-uVdfU-VrU92vL0YpA-508" value="" style="edgeStyle=orthogonalEdgeStyle;rounded=0;orthogonalLoop=1;jettySize=auto;fontFamily=Verdana;fontSize=18;" edge="1" parent="1" target="3T-uVdfU-VrU92vL0YpA-509">
          <mxGeometry relative="1" as="geometry">
            <mxPoint x="970" y="2800" as="sourcePoint" />
          </mxGeometry>
        </mxCell>
        <mxCell id="3T-uVdfU-VrU92vL0YpA-509" value="D" style="ellipse;whiteSpace=wrap;aspect=fixed;fontSize=18;fontStyle=1" vertex="1" parent="1">
          <mxGeometry x="945" y="2840" width="50" height="50" as="geometry" />
        </mxCell>
        <mxCell id="3T-uVdfU-VrU92vL0YpA-510" value="30" style="text;align=center;verticalAlign=middle;resizable=0;points=[];autosize=1;strokeColor=none;fillColor=none;fontSize=18;fontFamily=Verdana;" vertex="1" parent="1">
          <mxGeometry x="960" y="2805" width="50" height="40" as="geometry" />
        </mxCell>
        <mxCell id="3T-uVdfU-VrU92vL0YpA-511" value="" style="edgeStyle=orthogonalEdgeStyle;rounded=0;orthogonalLoop=1;jettySize=auto;entryX=0.5;entryY=0;entryDx=0;entryDy=0;fontFamily=Verdana;fontSize=18;" edge="1" parent="1" target="3T-uVdfU-VrU92vL0YpA-514">
          <mxGeometry relative="1" as="geometry">
            <mxPoint x="970" y="2890" as="sourcePoint" />
          </mxGeometry>
        </mxCell>
        <mxCell id="3T-uVdfU-VrU92vL0YpA-512" value="" style="edgeStyle=orthogonalEdgeStyle;rounded=0;orthogonalLoop=1;jettySize=auto;entryX=0.5;entryY=0;entryDx=0;entryDy=0;fontFamily=Verdana;fontSize=18;" edge="1" parent="1" target="3T-uVdfU-VrU92vL0YpA-515">
          <mxGeometry relative="1" as="geometry">
            <mxPoint x="970" y="3035" as="sourcePoint" />
          </mxGeometry>
        </mxCell>
        <mxCell id="3T-uVdfU-VrU92vL0YpA-513" value="" style="edgeStyle=orthogonalEdgeStyle;rounded=0;orthogonalLoop=1;jettySize=auto;entryX=0.5;entryY=0;entryDx=0;entryDy=0;fontSize=18;" edge="1" parent="1" source="3T-uVdfU-VrU92vL0YpA-514" target="3T-uVdfU-VrU92vL0YpA-518">
          <mxGeometry relative="1" as="geometry" />
        </mxCell>
        <mxCell id="3T-uVdfU-VrU92vL0YpA-514" value="I" style="ellipse;whiteSpace=wrap;aspect=fixed;fontSize=18;fontStyle=1" vertex="1" parent="1">
          <mxGeometry x="945" y="2915" width="50" height="50" as="geometry" />
        </mxCell>
        <mxCell id="3T-uVdfU-VrU92vL0YpA-523" value="" style="edgeStyle=orthogonalEdgeStyle;rounded=0;orthogonalLoop=1;jettySize=auto;entryX=0.5;entryY=0;entryDx=0;entryDy=0;fontSize=18;" edge="1" parent="1" source="3T-uVdfU-VrU92vL0YpA-515" target="3T-uVdfU-VrU92vL0YpA-520">
          <mxGeometry relative="1" as="geometry">
            <Array as="points">
              <mxPoint x="970" y="3130" />
              <mxPoint x="885" y="3130" />
            </Array>
          </mxGeometry>
        </mxCell>
        <mxCell id="3T-uVdfU-VrU92vL0YpA-515" value="H" style="ellipse;whiteSpace=wrap;aspect=fixed;fontSize=18;fontStyle=1" vertex="1" parent="1">
          <mxGeometry x="945" y="3065" width="50" height="50" as="geometry" />
        </mxCell>
        <mxCell id="3T-uVdfU-VrU92vL0YpA-516" value="13" style="text;align=center;verticalAlign=middle;resizable=0;points=[];autosize=1;strokeColor=none;fillColor=none;fontSize=18;fontFamily=Verdana;" vertex="1" parent="1">
          <mxGeometry x="960" y="3030" width="50" height="40" as="geometry" />
        </mxCell>
        <mxCell id="3T-uVdfU-VrU92vL0YpA-517" value="23" style="text;align=center;verticalAlign=middle;resizable=0;points=[];autosize=1;strokeColor=none;fillColor=none;fontSize=18;fontFamily=Verdana;" vertex="1" parent="1">
          <mxGeometry x="960" y="2880" width="50" height="40" as="geometry" />
        </mxCell>
        <mxCell id="3T-uVdfU-VrU92vL0YpA-518" value="R" style="ellipse;whiteSpace=wrap;aspect=fixed;fontSize=18;fontStyle=1" vertex="1" parent="1">
          <mxGeometry x="945" y="2990" width="50" height="50" as="geometry" />
        </mxCell>
        <mxCell id="3T-uVdfU-VrU92vL0YpA-519" value="19" style="text;align=center;verticalAlign=middle;resizable=0;points=[];autosize=1;strokeColor=none;fillColor=none;fontSize=18;" vertex="1" parent="1">
          <mxGeometry x="962.5" y="2955" width="40" height="40" as="geometry" />
        </mxCell>
        <mxCell id="3T-uVdfU-VrU92vL0YpA-520" value="U" style="ellipse;whiteSpace=wrap;aspect=fixed;fontSize=18;fontStyle=1" vertex="1" parent="1">
          <mxGeometry x="860" y="3152.5" width="50" height="50" as="geometry" />
        </mxCell>
        <mxCell id="3T-uVdfU-VrU92vL0YpA-524" value="10" style="text;align=center;verticalAlign=middle;resizable=0;points=[];autosize=1;strokeColor=none;fillColor=none;fontSize=18;fontFamily=Verdana;" vertex="1" parent="1">
          <mxGeometry x="840" y="3090" width="50" height="40" as="geometry" />
        </mxCell>
        <mxCell id="3T-uVdfU-VrU92vL0YpA-526" value="M" style="ellipse;whiteSpace=wrap;aspect=fixed;fontSize=18;fontStyle=1" vertex="1" parent="1">
          <mxGeometry x="700" y="3152.5" width="50" height="50" as="geometry" />
        </mxCell>
        <mxCell id="3T-uVdfU-VrU92vL0YpA-653" value="" style="edgeStyle=orthogonalEdgeStyle;rounded=0;orthogonalLoop=1;jettySize=auto;entryX=0.5;entryY=0;entryDx=0;entryDy=0;fontSize=18;" edge="1" parent="1" source="3T-uVdfU-VrU92vL0YpA-530" target="3T-uVdfU-VrU92vL0YpA-650">
          <mxGeometry relative="1" as="geometry" />
        </mxCell>
        <mxCell id="3T-uVdfU-VrU92vL0YpA-530" value="M" style="ellipse;whiteSpace=wrap;aspect=fixed;fontSize=18;fontStyle=1" vertex="1" parent="1">
          <mxGeometry x="165" y="3830" width="50" height="50" as="geometry" />
        </mxCell>
        <mxCell id="3T-uVdfU-VrU92vL0YpA-688" value="" style="edgeStyle=orthogonalEdgeStyle;rounded=0;orthogonalLoop=1;jettySize=auto;entryX=0.5;entryY=0;entryDx=0;entryDy=0;fontSize=18;" edge="1" parent="1" source="3T-uVdfU-VrU92vL0YpA-537" target="3T-uVdfU-VrU92vL0YpA-683">
          <mxGeometry relative="1" as="geometry">
            <Array as="points">
              <mxPoint x="348" y="4450" />
              <mxPoint x="318" y="4450" />
            </Array>
          </mxGeometry>
        </mxCell>
        <mxCell id="3T-uVdfU-VrU92vL0YpA-537" value="," style="ellipse;whiteSpace=wrap;aspect=fixed;fontSize=18;fontStyle=1" vertex="1" parent="1">
          <mxGeometry x="322.5" y="3830" width="50" height="50" as="geometry" />
        </mxCell>
        <mxCell id="3T-uVdfU-VrU92vL0YpA-723" value="" style="edgeStyle=orthogonalEdgeStyle;rounded=0;orthogonalLoop=1;jettySize=auto;entryX=0.5;entryY=0;entryDx=0;entryDy=0;fontSize=18;" edge="1" parent="1" source="3T-uVdfU-VrU92vL0YpA-538" target="3T-uVdfU-VrU92vL0YpA-718">
          <mxGeometry relative="1" as="geometry">
            <mxPoint x="460" y="4559.999999999999" as="targetPoint" />
            <Array as="points">
              <mxPoint x="508" y="4540" />
              <mxPoint x="460" y="4540" />
            </Array>
          </mxGeometry>
        </mxCell>
        <mxCell id="3T-uVdfU-VrU92vL0YpA-538" value="," style="ellipse;whiteSpace=wrap;aspect=fixed;fontSize=18;fontStyle=1" vertex="1" parent="1">
          <mxGeometry x="482.5" y="3830" width="50" height="50" as="geometry" />
        </mxCell>
        <mxCell id="3T-uVdfU-VrU92vL0YpA-540" value="7" style="ellipse;whiteSpace=wrap;aspect=fixed;fontSize=18;fontStyle=1" vertex="1" parent="1">
          <mxGeometry x="402.5" y="3830" width="50" height="50" as="geometry" />
        </mxCell>
        <mxCell id="3T-uVdfU-VrU92vL0YpA-652" value="" style="edgeStyle=orthogonalEdgeStyle;rounded=0;orthogonalLoop=1;jettySize=auto;entryX=0.5;entryY=0;entryDx=0;entryDy=0;fontSize=18;" edge="1" parent="1" source="3T-uVdfU-VrU92vL0YpA-541" target="3T-uVdfU-VrU92vL0YpA-650">
          <mxGeometry relative="1" as="geometry">
            <Array as="points">
              <mxPoint x="270" y="3910" />
              <mxPoint x="190" y="3910" />
            </Array>
          </mxGeometry>
        </mxCell>
        <mxCell id="3T-uVdfU-VrU92vL0YpA-541" value="U" style="ellipse;whiteSpace=wrap;aspect=fixed;fontSize=18;fontStyle=1" vertex="1" parent="1">
          <mxGeometry x="245" y="3830" width="50" height="50" as="geometry" />
        </mxCell>
        <mxCell id="3T-uVdfU-VrU92vL0YpA-544" value="9" style="ellipse;whiteSpace=wrap;aspect=fixed;fontSize=18;fontStyle=1" vertex="1" parent="1">
          <mxGeometry x="642.5" y="3830" width="50" height="50" as="geometry" />
        </mxCell>
        <mxCell id="3T-uVdfU-VrU92vL0YpA-711" value="" style="edgeStyle=orthogonalEdgeStyle;rounded=0;orthogonalLoop=1;jettySize=auto;entryX=0.5;entryY=0;entryDx=0;entryDy=0;fontSize=18;" edge="1" parent="1" source="3T-uVdfU-VrU92vL0YpA-545" target="3T-uVdfU-VrU92vL0YpA-710">
          <mxGeometry relative="1" as="geometry" />
        </mxCell>
        <mxCell id="3T-uVdfU-VrU92vL0YpA-545" value="-" style="ellipse;whiteSpace=wrap;aspect=fixed;fontSize=18;fontStyle=1" vertex="1" parent="1">
          <mxGeometry x="562.5" y="3830" width="50" height="50" as="geometry" />
        </mxCell>
        <mxCell id="3T-uVdfU-VrU92vL0YpA-651" value="" style="edgeStyle=orthogonalEdgeStyle;rounded=0;orthogonalLoop=1;jettySize=auto;entryX=0.5;entryY=0;entryDx=0;entryDy=0;fontSize=18;" edge="1" parent="1" source="3T-uVdfU-VrU92vL0YpA-617" target="3T-uVdfU-VrU92vL0YpA-650">
          <mxGeometry relative="1" as="geometry">
            <Array as="points">
              <mxPoint x="110" y="3910" />
              <mxPoint x="190" y="3910" />
            </Array>
          </mxGeometry>
        </mxCell>
        <mxCell id="3T-uVdfU-VrU92vL0YpA-617" value="T" style="ellipse;whiteSpace=wrap;aspect=fixed;fontSize=18;fontStyle=1" vertex="1" parent="1">
          <mxGeometry x="85" y="3830" width="50" height="50" as="geometry" />
        </mxCell>
        <mxCell id="3T-uVdfU-VrU92vL0YpA-650" value="T" style="ellipse;whiteSpace=wrap;aspect=fixed;fontSize=18;fontStyle=1" vertex="1" parent="1">
          <mxGeometry x="165" y="3940" width="50" height="50" as="geometry" />
        </mxCell>
        <mxCell id="3T-uVdfU-VrU92vL0YpA-654" value="8" style="text;align=center;verticalAlign=middle;resizable=0;points=[];autosize=1;strokeColor=none;fillColor=none;fontSize=18;" vertex="1" parent="1">
          <mxGeometry x="185" y="3880" width="30" height="40" as="geometry" />
        </mxCell>
        <mxCell id="3T-uVdfU-VrU92vL0YpA-655" value="" style="edgeStyle=orthogonalEdgeStyle;rounded=0;orthogonalLoop=1;jettySize=auto;entryX=0.5;entryY=0;entryDx=0;entryDy=0;fontSize=18;" edge="1" parent="1" target="3T-uVdfU-VrU92vL0YpA-656">
          <mxGeometry relative="1" as="geometry">
            <mxPoint x="190" y="3990" as="sourcePoint" />
          </mxGeometry>
        </mxCell>
        <mxCell id="3T-uVdfU-VrU92vL0YpA-656" value="A" style="ellipse;whiteSpace=wrap;aspect=fixed;fontSize=18;fontStyle=1" vertex="1" parent="1">
          <mxGeometry x="165" y="4020" width="50" height="50" as="geometry" />
        </mxCell>
        <mxCell id="3T-uVdfU-VrU92vL0YpA-657" value="4" style="text;align=center;verticalAlign=middle;resizable=0;points=[];autosize=1;strokeColor=none;fillColor=none;fontSize=18;" vertex="1" parent="1">
          <mxGeometry x="185" y="3980" width="30" height="40" as="geometry" />
        </mxCell>
        <mxCell id="3T-uVdfU-VrU92vL0YpA-658" value="" style="edgeStyle=orthogonalEdgeStyle;rounded=0;orthogonalLoop=1;jettySize=auto;entryX=0.5;entryY=0;entryDx=0;entryDy=0;fontSize=18;" edge="1" parent="1" target="3T-uVdfU-VrU92vL0YpA-659">
          <mxGeometry relative="1" as="geometry">
            <mxPoint x="190" y="4070" as="sourcePoint" />
          </mxGeometry>
        </mxCell>
        <mxCell id="3T-uVdfU-VrU92vL0YpA-687" value="" style="edgeStyle=orthogonalEdgeStyle;rounded=0;orthogonalLoop=1;jettySize=auto;entryX=0.5;entryY=0;entryDx=0;entryDy=0;fontSize=18;" edge="1" parent="1" source="3T-uVdfU-VrU92vL0YpA-659" target="3T-uVdfU-VrU92vL0YpA-683">
          <mxGeometry relative="1" as="geometry">
            <Array as="points">
              <mxPoint x="190" y="4450" />
              <mxPoint x="318" y="4450" />
            </Array>
          </mxGeometry>
        </mxCell>
        <mxCell id="3T-uVdfU-VrU92vL0YpA-659" value="B" style="ellipse;whiteSpace=wrap;aspect=fixed;fontSize=18;fontStyle=1" vertex="1" parent="1">
          <mxGeometry x="165" y="4100" width="50" height="50" as="geometry" />
        </mxCell>
        <mxCell id="3T-uVdfU-VrU92vL0YpA-660" value="2" style="text;align=center;verticalAlign=middle;resizable=0;points=[];autosize=1;strokeColor=none;fillColor=none;fontSize=18;" vertex="1" parent="1">
          <mxGeometry x="190" y="4065" width="30" height="40" as="geometry" />
        </mxCell>
        <mxCell id="3T-uVdfU-VrU92vL0YpA-661" value="" style="edgeStyle=orthogonalEdgeStyle;rounded=0;orthogonalLoop=1;jettySize=auto;fontFamily=Verdana;fontSize=18;" edge="1" parent="1" target="3T-uVdfU-VrU92vL0YpA-662">
          <mxGeometry relative="1" as="geometry">
            <mxPoint x="427.5" y="3880" as="sourcePoint" />
          </mxGeometry>
        </mxCell>
        <mxCell id="3T-uVdfU-VrU92vL0YpA-662" value="D" style="ellipse;whiteSpace=wrap;aspect=fixed;fontSize=18;fontStyle=1" vertex="1" parent="1">
          <mxGeometry x="402.5" y="3920" width="50" height="50" as="geometry" />
        </mxCell>
        <mxCell id="3T-uVdfU-VrU92vL0YpA-663" value="30" style="text;align=center;verticalAlign=middle;resizable=0;points=[];autosize=1;strokeColor=none;fillColor=none;fontSize=18;fontFamily=Verdana;" vertex="1" parent="1">
          <mxGeometry x="417.5" y="3885" width="50" height="40" as="geometry" />
        </mxCell>
        <mxCell id="3T-uVdfU-VrU92vL0YpA-664" value="" style="edgeStyle=orthogonalEdgeStyle;rounded=0;orthogonalLoop=1;jettySize=auto;entryX=0.5;entryY=0;entryDx=0;entryDy=0;fontFamily=Verdana;fontSize=18;" edge="1" parent="1" target="3T-uVdfU-VrU92vL0YpA-667">
          <mxGeometry relative="1" as="geometry">
            <mxPoint x="427.5" y="3970" as="sourcePoint" />
          </mxGeometry>
        </mxCell>
        <mxCell id="3T-uVdfU-VrU92vL0YpA-665" value="" style="edgeStyle=orthogonalEdgeStyle;rounded=0;orthogonalLoop=1;jettySize=auto;entryX=0.5;entryY=0;entryDx=0;entryDy=0;fontFamily=Verdana;fontSize=18;" edge="1" parent="1" target="3T-uVdfU-VrU92vL0YpA-668">
          <mxGeometry relative="1" as="geometry">
            <mxPoint x="427.5" y="4115" as="sourcePoint" />
          </mxGeometry>
        </mxCell>
        <mxCell id="3T-uVdfU-VrU92vL0YpA-666" value="" style="edgeStyle=orthogonalEdgeStyle;rounded=0;orthogonalLoop=1;jettySize=auto;entryX=0.5;entryY=0;entryDx=0;entryDy=0;fontSize=18;" edge="1" parent="1" source="3T-uVdfU-VrU92vL0YpA-667" target="3T-uVdfU-VrU92vL0YpA-677">
          <mxGeometry relative="1" as="geometry" />
        </mxCell>
        <mxCell id="3T-uVdfU-VrU92vL0YpA-667" value="I" style="ellipse;whiteSpace=wrap;aspect=fixed;fontSize=18;fontStyle=1" vertex="1" parent="1">
          <mxGeometry x="402.5" y="3995" width="50" height="50" as="geometry" />
        </mxCell>
        <mxCell id="3T-uVdfU-VrU92vL0YpA-668" value="H" style="ellipse;whiteSpace=wrap;aspect=fixed;fontSize=18;fontStyle=1" vertex="1" parent="1">
          <mxGeometry x="402.5" y="4150" width="50" height="50" as="geometry" />
        </mxCell>
        <mxCell id="3T-uVdfU-VrU92vL0YpA-669" value="13" style="text;align=center;verticalAlign=middle;resizable=0;points=[];autosize=1;strokeColor=none;fillColor=none;fontSize=18;fontFamily=Verdana;" vertex="1" parent="1">
          <mxGeometry x="417.5" y="4110" width="50" height="40" as="geometry" />
        </mxCell>
        <mxCell id="3T-uVdfU-VrU92vL0YpA-670" value="23" style="text;align=center;verticalAlign=middle;resizable=0;points=[];autosize=1;strokeColor=none;fillColor=none;fontSize=18;fontFamily=Verdana;" vertex="1" parent="1">
          <mxGeometry x="417.5" y="3960" width="50" height="40" as="geometry" />
        </mxCell>
        <mxCell id="3T-uVdfU-VrU92vL0YpA-671" value="U" style="ellipse;whiteSpace=wrap;aspect=fixed;fontSize=18;fontStyle=1" vertex="1" parent="1">
          <mxGeometry x="402.5" y="4220" width="50" height="50" as="geometry" />
        </mxCell>
        <mxCell id="3T-uVdfU-VrU92vL0YpA-672" value="" style="edgeStyle=orthogonalEdgeStyle;rounded=0;orthogonalLoop=1;jettySize=auto;entryX=0.5;entryY=0;entryDx=0;entryDy=0;fontFamily=Verdana;fontSize=18;exitX=0.5;exitY=1;exitDx=0;exitDy=0;" edge="1" parent="1" source="3T-uVdfU-VrU92vL0YpA-668" target="3T-uVdfU-VrU92vL0YpA-671">
          <mxGeometry relative="1" as="geometry">
            <mxPoint x="427.5" y="4200" as="sourcePoint" />
            <mxPoint x="427.5" y="4230" as="targetPoint" />
          </mxGeometry>
        </mxCell>
        <mxCell id="3T-uVdfU-VrU92vL0YpA-673" value="9" style="text;align=center;verticalAlign=middle;resizable=0;points=[];autosize=1;strokeColor=none;fillColor=none;fontSize=18;fontFamily=Verdana;" vertex="1" parent="1">
          <mxGeometry x="425" y="4185" width="30" height="40" as="geometry" />
        </mxCell>
        <mxCell id="3T-uVdfU-VrU92vL0YpA-674" value="" style="edgeStyle=orthogonalEdgeStyle;rounded=0;orthogonalLoop=1;jettySize=auto;entryX=0.5;entryY=0;entryDx=0;entryDy=0;fontFamily=Verdana;fontSize=18;exitX=0.5;exitY=1;exitDx=0;exitDy=0;" edge="1" parent="1" source="3T-uVdfU-VrU92vL0YpA-671" target="3T-uVdfU-VrU92vL0YpA-675">
          <mxGeometry relative="1" as="geometry">
            <mxPoint x="427.5" y="4265" as="sourcePoint" />
            <Array as="points" />
          </mxGeometry>
        </mxCell>
        <mxCell id="3T-uVdfU-VrU92vL0YpA-675" value="T" style="ellipse;whiteSpace=wrap;aspect=fixed;fontSize=18;fontStyle=1" vertex="1" parent="1">
          <mxGeometry x="402.5" y="4300" width="50" height="50" as="geometry" />
        </mxCell>
        <mxCell id="3T-uVdfU-VrU92vL0YpA-676" value="7" style="text;align=center;verticalAlign=middle;resizable=0;points=[];autosize=1;strokeColor=none;fillColor=none;fontSize=18;fontFamily=Verdana;" vertex="1" parent="1">
          <mxGeometry x="435" y="4260" width="30" height="40" as="geometry" />
        </mxCell>
        <mxCell id="3T-uVdfU-VrU92vL0YpA-677" value="R" style="ellipse;whiteSpace=wrap;aspect=fixed;fontSize=18;fontStyle=1" vertex="1" parent="1">
          <mxGeometry x="402.5" y="4070" width="50" height="50" as="geometry" />
        </mxCell>
        <mxCell id="3T-uVdfU-VrU92vL0YpA-678" value="19" style="text;align=center;verticalAlign=middle;resizable=0;points=[];autosize=1;strokeColor=none;fillColor=none;fontSize=18;" vertex="1" parent="1">
          <mxGeometry x="420" y="4035" width="40" height="40" as="geometry" />
        </mxCell>
        <mxCell id="3T-uVdfU-VrU92vL0YpA-679" value="" style="edgeStyle=orthogonalEdgeStyle;rounded=0;orthogonalLoop=1;jettySize=auto;entryX=0.5;entryY=0;entryDx=0;entryDy=0;fontFamily=Verdana;fontSize=18;exitX=0.5;exitY=1;exitDx=0;exitDy=0;" edge="1" parent="1" target="3T-uVdfU-VrU92vL0YpA-680">
          <mxGeometry relative="1" as="geometry">
            <mxPoint x="428" y="4350" as="sourcePoint" />
            <Array as="points" />
          </mxGeometry>
        </mxCell>
        <mxCell id="3T-uVdfU-VrU92vL0YpA-685" value="" style="edgeStyle=orthogonalEdgeStyle;rounded=0;orthogonalLoop=1;jettySize=auto;entryX=0.5;entryY=0;entryDx=0;entryDy=0;fontSize=18;" edge="1" parent="1" source="3T-uVdfU-VrU92vL0YpA-680" target="3T-uVdfU-VrU92vL0YpA-683">
          <mxGeometry relative="1" as="geometry">
            <Array as="points">
              <mxPoint x="428" y="4450" />
              <mxPoint x="318" y="4450" />
            </Array>
          </mxGeometry>
        </mxCell>
        <mxCell id="3T-uVdfU-VrU92vL0YpA-680" value="A" style="ellipse;whiteSpace=wrap;aspect=fixed;fontSize=18;fontStyle=1" vertex="1" parent="1">
          <mxGeometry x="402.5" y="4380" width="50" height="50" as="geometry" />
        </mxCell>
        <mxCell id="3T-uVdfU-VrU92vL0YpA-681" value="4" style="text;align=center;verticalAlign=middle;resizable=0;points=[];autosize=1;strokeColor=none;fillColor=none;fontSize=18;fontFamily=Verdana;" vertex="1" parent="1">
          <mxGeometry x="435" y="4340" width="30" height="40" as="geometry" />
        </mxCell>
        <mxCell id="3T-uVdfU-VrU92vL0YpA-721" value="" style="edgeStyle=orthogonalEdgeStyle;rounded=0;orthogonalLoop=1;jettySize=auto;entryX=0.5;entryY=0;entryDx=0;entryDy=0;fontSize=18;" edge="1" parent="1" source="3T-uVdfU-VrU92vL0YpA-683" target="3T-uVdfU-VrU92vL0YpA-718">
          <mxGeometry relative="1" as="geometry">
            <Array as="points">
              <mxPoint x="318" y="4540" />
              <mxPoint x="460" y="4540" />
            </Array>
          </mxGeometry>
        </mxCell>
        <mxCell id="3T-uVdfU-VrU92vL0YpA-683" value="B" style="ellipse;whiteSpace=wrap;aspect=fixed;fontSize=18;fontStyle=1" vertex="1" parent="1">
          <mxGeometry x="292.5" y="4470" width="50" height="50" as="geometry" />
        </mxCell>
        <mxCell id="3T-uVdfU-VrU92vL0YpA-684" value="3" style="text;align=center;verticalAlign=middle;resizable=0;points=[];autosize=1;strokeColor=none;fillColor=none;fontSize=18;" vertex="1" parent="1">
          <mxGeometry x="305" y="4410" width="30" height="40" as="geometry" />
        </mxCell>
        <mxCell id="3T-uVdfU-VrU92vL0YpA-689" value="" style="edgeStyle=orthogonalEdgeStyle;rounded=0;orthogonalLoop=1;jettySize=auto;fontFamily=Verdana;fontSize=18;" edge="1" parent="1" target="3T-uVdfU-VrU92vL0YpA-690">
          <mxGeometry relative="1" as="geometry">
            <mxPoint x="667.5" y="3880" as="sourcePoint" />
          </mxGeometry>
        </mxCell>
        <mxCell id="3T-uVdfU-VrU92vL0YpA-690" value="D" style="ellipse;whiteSpace=wrap;aspect=fixed;fontSize=18;fontStyle=1" vertex="1" parent="1">
          <mxGeometry x="642.5" y="3920" width="50" height="50" as="geometry" />
        </mxCell>
        <mxCell id="3T-uVdfU-VrU92vL0YpA-691" value="30" style="text;align=center;verticalAlign=middle;resizable=0;points=[];autosize=1;strokeColor=none;fillColor=none;fontSize=18;fontFamily=Verdana;" vertex="1" parent="1">
          <mxGeometry x="657.5" y="3885" width="50" height="40" as="geometry" />
        </mxCell>
        <mxCell id="3T-uVdfU-VrU92vL0YpA-692" value="" style="edgeStyle=orthogonalEdgeStyle;rounded=0;orthogonalLoop=1;jettySize=auto;entryX=0.5;entryY=0;entryDx=0;entryDy=0;fontFamily=Verdana;fontSize=18;" edge="1" parent="1" target="3T-uVdfU-VrU92vL0YpA-695">
          <mxGeometry relative="1" as="geometry">
            <mxPoint x="667.5" y="3970" as="sourcePoint" />
          </mxGeometry>
        </mxCell>
        <mxCell id="3T-uVdfU-VrU92vL0YpA-693" value="" style="edgeStyle=orthogonalEdgeStyle;rounded=0;orthogonalLoop=1;jettySize=auto;entryX=0.5;entryY=0;entryDx=0;entryDy=0;fontFamily=Verdana;fontSize=18;" edge="1" parent="1" target="3T-uVdfU-VrU92vL0YpA-696">
          <mxGeometry relative="1" as="geometry">
            <mxPoint x="667.5" y="4115" as="sourcePoint" />
          </mxGeometry>
        </mxCell>
        <mxCell id="3T-uVdfU-VrU92vL0YpA-694" value="" style="edgeStyle=orthogonalEdgeStyle;rounded=0;orthogonalLoop=1;jettySize=auto;entryX=0.5;entryY=0;entryDx=0;entryDy=0;fontSize=18;" edge="1" parent="1" source="3T-uVdfU-VrU92vL0YpA-695" target="3T-uVdfU-VrU92vL0YpA-705">
          <mxGeometry relative="1" as="geometry" />
        </mxCell>
        <mxCell id="3T-uVdfU-VrU92vL0YpA-695" value="I" style="ellipse;whiteSpace=wrap;aspect=fixed;fontSize=18;fontStyle=1" vertex="1" parent="1">
          <mxGeometry x="642.5" y="3995" width="50" height="50" as="geometry" />
        </mxCell>
        <mxCell id="3T-uVdfU-VrU92vL0YpA-696" value="H" style="ellipse;whiteSpace=wrap;aspect=fixed;fontSize=18;fontStyle=1" vertex="1" parent="1">
          <mxGeometry x="642.5" y="4150" width="50" height="50" as="geometry" />
        </mxCell>
        <mxCell id="3T-uVdfU-VrU92vL0YpA-697" value="13" style="text;align=center;verticalAlign=middle;resizable=0;points=[];autosize=1;strokeColor=none;fillColor=none;fontSize=18;fontFamily=Verdana;" vertex="1" parent="1">
          <mxGeometry x="657.5" y="4110" width="50" height="40" as="geometry" />
        </mxCell>
        <mxCell id="3T-uVdfU-VrU92vL0YpA-698" value="23" style="text;align=center;verticalAlign=middle;resizable=0;points=[];autosize=1;strokeColor=none;fillColor=none;fontSize=18;fontFamily=Verdana;" vertex="1" parent="1">
          <mxGeometry x="657.5" y="3960" width="50" height="40" as="geometry" />
        </mxCell>
        <mxCell id="3T-uVdfU-VrU92vL0YpA-699" value="U" style="ellipse;whiteSpace=wrap;aspect=fixed;fontSize=18;fontStyle=1" vertex="1" parent="1">
          <mxGeometry x="642.5" y="4220" width="50" height="50" as="geometry" />
        </mxCell>
        <mxCell id="3T-uVdfU-VrU92vL0YpA-700" value="" style="edgeStyle=orthogonalEdgeStyle;rounded=0;orthogonalLoop=1;jettySize=auto;entryX=0.5;entryY=0;entryDx=0;entryDy=0;fontFamily=Verdana;fontSize=18;exitX=0.5;exitY=1;exitDx=0;exitDy=0;" edge="1" parent="1" source="3T-uVdfU-VrU92vL0YpA-696" target="3T-uVdfU-VrU92vL0YpA-699">
          <mxGeometry relative="1" as="geometry">
            <mxPoint x="667.5" y="4200" as="sourcePoint" />
            <mxPoint x="667.5" y="4230" as="targetPoint" />
          </mxGeometry>
        </mxCell>
        <mxCell id="3T-uVdfU-VrU92vL0YpA-701" value="9" style="text;align=center;verticalAlign=middle;resizable=0;points=[];autosize=1;strokeColor=none;fillColor=none;fontSize=18;fontFamily=Verdana;" vertex="1" parent="1">
          <mxGeometry x="665" y="4185" width="30" height="40" as="geometry" />
        </mxCell>
        <mxCell id="3T-uVdfU-VrU92vL0YpA-702" value="" style="edgeStyle=orthogonalEdgeStyle;rounded=0;orthogonalLoop=1;jettySize=auto;entryX=0.5;entryY=0;entryDx=0;entryDy=0;fontFamily=Verdana;fontSize=18;exitX=0.5;exitY=1;exitDx=0;exitDy=0;" edge="1" parent="1" source="3T-uVdfU-VrU92vL0YpA-699" target="3T-uVdfU-VrU92vL0YpA-703">
          <mxGeometry relative="1" as="geometry">
            <mxPoint x="667.5" y="4265" as="sourcePoint" />
            <Array as="points" />
          </mxGeometry>
        </mxCell>
        <mxCell id="3T-uVdfU-VrU92vL0YpA-714" value="" style="edgeStyle=orthogonalEdgeStyle;rounded=0;orthogonalLoop=1;jettySize=auto;entryX=0.5;entryY=0;entryDx=0;entryDy=0;fontSize=18;" edge="1" parent="1" source="3T-uVdfU-VrU92vL0YpA-703" target="3T-uVdfU-VrU92vL0YpA-708">
          <mxGeometry relative="1" as="geometry">
            <Array as="points">
              <mxPoint x="668" y="4410" />
              <mxPoint x="588" y="4410" />
            </Array>
          </mxGeometry>
        </mxCell>
        <mxCell id="3T-uVdfU-VrU92vL0YpA-703" value="T" style="ellipse;whiteSpace=wrap;aspect=fixed;fontSize=18;fontStyle=1" vertex="1" parent="1">
          <mxGeometry x="642.5" y="4300" width="50" height="50" as="geometry" />
        </mxCell>
        <mxCell id="3T-uVdfU-VrU92vL0YpA-704" value="7" style="text;align=center;verticalAlign=middle;resizable=0;points=[];autosize=1;strokeColor=none;fillColor=none;fontSize=18;fontFamily=Verdana;" vertex="1" parent="1">
          <mxGeometry x="675" y="4260" width="30" height="40" as="geometry" />
        </mxCell>
        <mxCell id="3T-uVdfU-VrU92vL0YpA-705" value="R" style="ellipse;whiteSpace=wrap;aspect=fixed;fontSize=18;fontStyle=1" vertex="1" parent="1">
          <mxGeometry x="642.5" y="4070" width="50" height="50" as="geometry" />
        </mxCell>
        <mxCell id="3T-uVdfU-VrU92vL0YpA-706" value="19" style="text;align=center;verticalAlign=middle;resizable=0;points=[];autosize=1;strokeColor=none;fillColor=none;fontSize=18;" vertex="1" parent="1">
          <mxGeometry x="660" y="4035" width="40" height="40" as="geometry" />
        </mxCell>
        <mxCell id="3T-uVdfU-VrU92vL0YpA-722" value="" style="edgeStyle=orthogonalEdgeStyle;rounded=0;orthogonalLoop=1;jettySize=auto;entryX=0.5;entryY=0;entryDx=0;entryDy=0;fontSize=18;" edge="1" parent="1" source="3T-uVdfU-VrU92vL0YpA-708" target="3T-uVdfU-VrU92vL0YpA-718">
          <mxGeometry relative="1" as="geometry">
            <Array as="points">
              <mxPoint x="588" y="4540" />
              <mxPoint x="460" y="4540" />
            </Array>
          </mxGeometry>
        </mxCell>
        <mxCell id="3T-uVdfU-VrU92vL0YpA-708" value="A" style="ellipse;whiteSpace=wrap;aspect=fixed;fontSize=18;fontStyle=1" vertex="1" parent="1">
          <mxGeometry x="562.5" y="4440" width="50" height="50" as="geometry" />
        </mxCell>
        <mxCell id="3T-uVdfU-VrU92vL0YpA-709" value="5" style="text;align=center;verticalAlign=middle;resizable=0;points=[];autosize=1;strokeColor=none;fillColor=none;fontSize=18;fontFamily=Verdana;" vertex="1" parent="1">
          <mxGeometry x="590" y="4370" width="30" height="40" as="geometry" />
        </mxCell>
        <mxCell id="3T-uVdfU-VrU92vL0YpA-712" value="" style="edgeStyle=orthogonalEdgeStyle;rounded=0;orthogonalLoop=1;jettySize=auto;entryX=0.5;entryY=0;entryDx=0;entryDy=0;fontSize=18;" edge="1" parent="1" source="3T-uVdfU-VrU92vL0YpA-710" target="3T-uVdfU-VrU92vL0YpA-708">
          <mxGeometry relative="1" as="geometry" />
        </mxCell>
        <mxCell id="3T-uVdfU-VrU92vL0YpA-710" value="Z" style="ellipse;whiteSpace=wrap;aspect=fixed;fontSize=18;fontStyle=1" vertex="1" parent="1">
          <mxGeometry x="562.5" y="4225" width="50" height="50" as="geometry" />
        </mxCell>
        <mxCell id="3T-uVdfU-VrU92vL0YpA-715" value="25" style="text;align=center;verticalAlign=middle;resizable=0;points=[];autosize=1;strokeColor=none;fillColor=none;fontSize=18;fontFamily=Verdana;" vertex="1" parent="1">
          <mxGeometry x="582.5" y="4180" width="50" height="40" as="geometry" />
        </mxCell>
        <mxCell id="3T-uVdfU-VrU92vL0YpA-717" value="" style="edgeStyle=orthogonalEdgeStyle;rounded=0;orthogonalLoop=1;jettySize=auto;entryX=0.5;entryY=0;entryDx=0;entryDy=0;fontSize=18;" edge="1" parent="1" source="3T-uVdfU-VrU92vL0YpA-718" target="3T-uVdfU-VrU92vL0YpA-719">
          <mxGeometry relative="1" as="geometry" />
        </mxCell>
        <mxCell id="3T-uVdfU-VrU92vL0YpA-718" value="B" style="ellipse;whiteSpace=wrap;aspect=fixed;fontSize=18;fontStyle=1" vertex="1" parent="1">
          <mxGeometry x="435" y="4570" width="50" height="50" as="geometry" />
        </mxCell>
        <mxCell id="3T-uVdfU-VrU92vL0YpA-719" value="S" style="ellipse;whiteSpace=wrap;aspect=fixed;fontSize=18;fontStyle=1" vertex="1" parent="1">
          <mxGeometry x="435" y="4650" width="50" height="50" as="geometry" />
        </mxCell>
        <mxCell id="3T-uVdfU-VrU92vL0YpA-720" value="1" style="text;align=center;verticalAlign=middle;resizable=0;points=[];autosize=1;strokeColor=none;fillColor=none;fontSize=18;" vertex="1" parent="1">
          <mxGeometry x="452.5" y="4615" width="30" height="40" as="geometry" />
        </mxCell>
        <mxCell id="3T-uVdfU-VrU92vL0YpA-724" value="3" style="text;align=center;verticalAlign=middle;resizable=0;points=[];autosize=1;strokeColor=none;fillColor=none;fontSize=18;" vertex="1" parent="1">
          <mxGeometry x="450" y="4510" width="30" height="40" as="geometry" />
        </mxCell>
      </root>
    </mxGraphModel>
  </diagram>
</mxfile>
